G04 #@! TF.FileFunction,Soldermask,Top*
%FSLAX46Y46*%
G04 Gerber Fmt 4.6, Leading zero omitted, Abs format (unit mm)*
G04 Created by KiCad (PCBNEW 4.0.4-stable) date 2018 February 08, Thursday 23:42:13*
%MOMM*%
%LPD*%
G01*
G04 APERTURE LIST*
%ADD10C,0.100000*%
%ADD11R,2.200000X2.200000*%
%ADD12C,2.200000*%
%ADD13C,1.924000*%
%ADD14R,1.924000X1.924000*%
%ADD15C,2.000000*%
%ADD16O,2.000000X2.000000*%
%ADD17O,1.924000X2.940000*%
%ADD18C,4.337000*%
G04 APERTURE END LIST*
D10*
D11*
X213360000Y-71755000D03*
D12*
X213360000Y-69215000D03*
D13*
X167005000Y-66040000D03*
X167005000Y-63540000D03*
D14*
X167005000Y-68540000D03*
D13*
X167005000Y-55245000D03*
X167005000Y-52745000D03*
D14*
X167005000Y-57745000D03*
D13*
X220345000Y-76835000D03*
X220345000Y-79335000D03*
D14*
X220345000Y-74335000D03*
D13*
X220345000Y-54610000D03*
X220345000Y-57110000D03*
D14*
X220345000Y-52110000D03*
D13*
X167005000Y-79010000D03*
D14*
X167005000Y-81510000D03*
D13*
X167005000Y-76510000D03*
X167005000Y-74010000D03*
X220345000Y-63865000D03*
D14*
X220345000Y-61365000D03*
D13*
X220345000Y-66365000D03*
X220345000Y-68865000D03*
D15*
X207010000Y-50165000D03*
D16*
X207010000Y-57785000D03*
D15*
X180975000Y-74295000D03*
D16*
X180975000Y-81915000D03*
D15*
X180975000Y-69850000D03*
D16*
X180975000Y-62230000D03*
D17*
X167894000Y-90170000D03*
X170434000Y-90170000D03*
X158750000Y-41910000D03*
X161290000Y-41910000D03*
X208534000Y-41910000D03*
X211074000Y-41910000D03*
X213614000Y-41910000D03*
X216154000Y-41910000D03*
X218694000Y-41910000D03*
X221234000Y-41910000D03*
X223774000Y-41910000D03*
X226314000Y-41910000D03*
X231394000Y-90170000D03*
X228854000Y-90170000D03*
X226314000Y-90170000D03*
X223774000Y-90170000D03*
X213614000Y-90170000D03*
X208534000Y-90170000D03*
X205994000Y-90170000D03*
X216154000Y-90170000D03*
X218694000Y-90170000D03*
X221234000Y-90170000D03*
X203454000Y-90170000D03*
X200914000Y-90170000D03*
X198374000Y-90170000D03*
X190754000Y-90170000D03*
X193294000Y-90170000D03*
X195834000Y-90170000D03*
X185674000Y-90170000D03*
X183134000Y-90170000D03*
X180594000Y-90170000D03*
X175514000Y-90170000D03*
X172974000Y-90170000D03*
X203454000Y-41910000D03*
X200914000Y-41910000D03*
X198374000Y-41910000D03*
X195834000Y-41910000D03*
X193294000Y-41910000D03*
X190754000Y-41910000D03*
X188214000Y-41910000D03*
X185674000Y-41910000D03*
X181610000Y-41910000D03*
X179070000Y-41910000D03*
X176530000Y-41910000D03*
X173990000Y-41910000D03*
X171450000Y-41910000D03*
X168910000Y-41910000D03*
X166370000Y-41910000D03*
X163830000Y-41910000D03*
X178054000Y-90170000D03*
D18*
X236474000Y-90170000D03*
X230124000Y-41910000D03*
X155194000Y-41910000D03*
X153924000Y-90170000D03*
D13*
X233934000Y-44450000D03*
X236474000Y-44450000D03*
X233934000Y-46990000D03*
X236474000Y-46990000D03*
X233934000Y-49530000D03*
X236474000Y-49530000D03*
X233934000Y-52070000D03*
X236474000Y-52070000D03*
X233934000Y-41910000D03*
X236474000Y-41910000D03*
X236474000Y-54610000D03*
X233934000Y-54610000D03*
X233934000Y-57150000D03*
X236474000Y-57150000D03*
X233934000Y-59690000D03*
X236474000Y-59690000D03*
X233934000Y-62230000D03*
X236474000Y-62230000D03*
X233934000Y-64770000D03*
X236474000Y-64770000D03*
X233934000Y-67310000D03*
X236474000Y-67310000D03*
X233934000Y-69850000D03*
X236474000Y-69850000D03*
X233934000Y-72390000D03*
X236474000Y-72390000D03*
X233934000Y-74930000D03*
X236474000Y-74930000D03*
X233934000Y-77470000D03*
X236474000Y-77470000D03*
X233934000Y-80010000D03*
X236474000Y-80010000D03*
X233934000Y-82550000D03*
X236474000Y-82550000D03*
X233934000Y-85090000D03*
X236474000Y-85090000D03*
M02*
