G04 #@! TF.FileFunction,Copper,L1,Top,Signal*
%FSLAX46Y46*%
G04 Gerber Fmt 4.6, Leading zero omitted, Abs format (unit mm)*
G04 Created by KiCad (PCBNEW 4.0.4-stable) date 2018 February 08, Thursday 23:42:13*
%MOMM*%
%LPD*%
G01*
G04 APERTURE LIST*
%ADD10C,0.100000*%
%ADD11R,1.800000X1.800000*%
%ADD12C,1.800000*%
%ADD13C,1.524000*%
%ADD14R,1.524000X1.524000*%
%ADD15C,1.600000*%
%ADD16O,1.600000X1.600000*%
%ADD17O,1.524000X2.540000*%
%ADD18C,3.937000*%
%ADD19C,0.600000*%
%ADD20C,0.250000*%
%ADD21C,1.270000*%
%ADD22C,0.254000*%
G04 APERTURE END LIST*
D10*
D11*
X213360000Y-71755000D03*
D12*
X213360000Y-69215000D03*
D13*
X167005000Y-66040000D03*
X167005000Y-63540000D03*
D14*
X167005000Y-68540000D03*
D13*
X167005000Y-55245000D03*
X167005000Y-52745000D03*
D14*
X167005000Y-57745000D03*
D13*
X220345000Y-76835000D03*
X220345000Y-79335000D03*
D14*
X220345000Y-74335000D03*
D13*
X220345000Y-54610000D03*
X220345000Y-57110000D03*
D14*
X220345000Y-52110000D03*
D13*
X167005000Y-79010000D03*
D14*
X167005000Y-81510000D03*
D13*
X167005000Y-76510000D03*
X167005000Y-74010000D03*
X220345000Y-63865000D03*
D14*
X220345000Y-61365000D03*
D13*
X220345000Y-66365000D03*
X220345000Y-68865000D03*
D15*
X207010000Y-50165000D03*
D16*
X207010000Y-57785000D03*
D15*
X180975000Y-74295000D03*
D16*
X180975000Y-81915000D03*
D15*
X180975000Y-69850000D03*
D16*
X180975000Y-62230000D03*
D17*
X167894000Y-90170000D03*
X170434000Y-90170000D03*
X158750000Y-41910000D03*
X161290000Y-41910000D03*
X208534000Y-41910000D03*
X211074000Y-41910000D03*
X213614000Y-41910000D03*
X216154000Y-41910000D03*
X218694000Y-41910000D03*
X221234000Y-41910000D03*
X223774000Y-41910000D03*
X226314000Y-41910000D03*
X231394000Y-90170000D03*
X228854000Y-90170000D03*
X226314000Y-90170000D03*
X223774000Y-90170000D03*
X213614000Y-90170000D03*
X208534000Y-90170000D03*
X205994000Y-90170000D03*
X216154000Y-90170000D03*
X218694000Y-90170000D03*
X221234000Y-90170000D03*
X203454000Y-90170000D03*
X200914000Y-90170000D03*
X198374000Y-90170000D03*
X190754000Y-90170000D03*
X193294000Y-90170000D03*
X195834000Y-90170000D03*
X185674000Y-90170000D03*
X183134000Y-90170000D03*
X180594000Y-90170000D03*
X175514000Y-90170000D03*
X172974000Y-90170000D03*
X203454000Y-41910000D03*
X200914000Y-41910000D03*
X198374000Y-41910000D03*
X195834000Y-41910000D03*
X193294000Y-41910000D03*
X190754000Y-41910000D03*
X188214000Y-41910000D03*
X185674000Y-41910000D03*
X181610000Y-41910000D03*
X179070000Y-41910000D03*
X176530000Y-41910000D03*
X173990000Y-41910000D03*
X171450000Y-41910000D03*
X168910000Y-41910000D03*
X166370000Y-41910000D03*
X163830000Y-41910000D03*
X178054000Y-90170000D03*
D18*
X236474000Y-90170000D03*
X230124000Y-41910000D03*
X155194000Y-41910000D03*
X153924000Y-90170000D03*
D13*
X233934000Y-44450000D03*
X236474000Y-44450000D03*
X233934000Y-46990000D03*
X236474000Y-46990000D03*
X233934000Y-49530000D03*
X236474000Y-49530000D03*
X233934000Y-52070000D03*
X236474000Y-52070000D03*
X233934000Y-41910000D03*
X236474000Y-41910000D03*
X236474000Y-54610000D03*
X233934000Y-54610000D03*
X233934000Y-57150000D03*
X236474000Y-57150000D03*
X233934000Y-59690000D03*
X236474000Y-59690000D03*
X233934000Y-62230000D03*
X236474000Y-62230000D03*
X233934000Y-64770000D03*
X236474000Y-64770000D03*
X233934000Y-67310000D03*
X236474000Y-67310000D03*
X233934000Y-69850000D03*
X236474000Y-69850000D03*
X233934000Y-72390000D03*
X236474000Y-72390000D03*
X233934000Y-74930000D03*
X236474000Y-74930000D03*
X233934000Y-77470000D03*
X236474000Y-77470000D03*
X233934000Y-80010000D03*
X236474000Y-80010000D03*
X233934000Y-82550000D03*
X236474000Y-82550000D03*
X233934000Y-85090000D03*
X236474000Y-85090000D03*
D19*
X186690000Y-82550000D03*
X186690000Y-66040000D03*
X187960000Y-53975000D03*
X172085000Y-72390000D03*
X174625000Y-74295000D03*
X215900000Y-58420000D03*
X215900000Y-51435000D03*
D20*
X209550000Y-69215000D02*
X213360000Y-69215000D01*
X207010000Y-66675000D02*
X209550000Y-69215000D01*
X207010000Y-66040000D02*
X207010000Y-66675000D01*
X207010000Y-57785000D02*
X207010000Y-66040000D01*
D21*
X167005000Y-66040000D02*
X161925000Y-66040000D01*
X162520000Y-52745000D02*
X167005000Y-52745000D01*
X156845000Y-58420000D02*
X162520000Y-52745000D01*
X156845000Y-60960000D02*
X156845000Y-58420000D01*
X161925000Y-66040000D02*
X156845000Y-60960000D01*
X167005000Y-66040000D02*
X186690000Y-66040000D01*
X178054000Y-88011000D02*
X178054000Y-90170000D01*
X180340000Y-85725000D02*
X178054000Y-88011000D01*
X183515000Y-85725000D02*
X180340000Y-85725000D01*
X186690000Y-82550000D02*
X183515000Y-85725000D01*
D20*
X186690000Y-55245000D02*
X167005000Y-55245000D01*
X187960000Y-53975000D02*
X186690000Y-55245000D01*
X220345000Y-54610000D02*
X217170000Y-54610000D01*
X211074000Y-48514000D02*
X211074000Y-41910000D01*
X217170000Y-54610000D02*
X211074000Y-48514000D01*
X220345000Y-57110000D02*
X216495000Y-57110000D01*
X208534000Y-45339000D02*
X208534000Y-41910000D01*
X210185000Y-46990000D02*
X208534000Y-45339000D01*
X210185000Y-50800000D02*
X210185000Y-46990000D01*
X216495000Y-57110000D02*
X210185000Y-50800000D01*
X170180000Y-75835000D02*
X167005000Y-79010000D01*
X170180000Y-74295000D02*
X170180000Y-75835000D01*
X172085000Y-72390000D02*
X170180000Y-74295000D01*
D21*
X180975000Y-81915000D02*
X180975000Y-80645000D01*
X180975000Y-80645000D02*
X174625000Y-74295000D01*
X175514000Y-90170000D02*
X175514000Y-87376000D01*
X175514000Y-87376000D02*
X180975000Y-81915000D01*
D20*
X220345000Y-66365000D02*
X221290000Y-66365000D01*
X221234000Y-44704000D02*
X221234000Y-41910000D01*
X222885000Y-46355000D02*
X221234000Y-44704000D01*
X222885000Y-64770000D02*
X222885000Y-46355000D01*
X221290000Y-66365000D02*
X222885000Y-64770000D01*
X220345000Y-68865000D02*
X219995000Y-68865000D01*
X219995000Y-68865000D02*
X215900000Y-64770000D01*
X215900000Y-64770000D02*
X215900000Y-58420000D01*
X215900000Y-51435000D02*
X218694000Y-48641000D01*
X218694000Y-48641000D02*
X218694000Y-41910000D01*
X181610000Y-41910000D02*
X181610000Y-45720000D01*
X186055000Y-50165000D02*
X207010000Y-50165000D01*
X181610000Y-45720000D02*
X186055000Y-50165000D01*
D22*
G36*
X153521323Y-40057718D02*
X155194000Y-41730395D01*
X156866677Y-40057718D01*
X156848542Y-40027000D01*
X158451772Y-40027000D01*
X158215391Y-40074019D01*
X157762172Y-40376851D01*
X157527281Y-40728389D01*
X157413730Y-40454252D01*
X157046282Y-40237323D01*
X155373605Y-41910000D01*
X157046282Y-43582677D01*
X157413730Y-43365748D01*
X157525568Y-43089047D01*
X157762172Y-43443149D01*
X158215391Y-43745981D01*
X158750000Y-43852321D01*
X159284609Y-43745981D01*
X159737828Y-43443149D01*
X160020000Y-43020850D01*
X160302172Y-43443149D01*
X160755391Y-43745981D01*
X161290000Y-43852321D01*
X161824609Y-43745981D01*
X162277828Y-43443149D01*
X162560000Y-43020850D01*
X162842172Y-43443149D01*
X163295391Y-43745981D01*
X163830000Y-43852321D01*
X164364609Y-43745981D01*
X164817828Y-43443149D01*
X165109330Y-43006887D01*
X165127941Y-43069941D01*
X165471974Y-43495630D01*
X165952723Y-43757260D01*
X166026930Y-43772220D01*
X166243000Y-43649720D01*
X166243000Y-42037000D01*
X166223000Y-42037000D01*
X166223000Y-41783000D01*
X166243000Y-41783000D01*
X166243000Y-41763000D01*
X166497000Y-41763000D01*
X166497000Y-41783000D01*
X166517000Y-41783000D01*
X166517000Y-42037000D01*
X166497000Y-42037000D01*
X166497000Y-43649720D01*
X166713070Y-43772220D01*
X166787277Y-43757260D01*
X167268026Y-43495630D01*
X167612059Y-43069941D01*
X167630670Y-43006887D01*
X167922172Y-43443149D01*
X168375391Y-43745981D01*
X168910000Y-43852321D01*
X169444609Y-43745981D01*
X169897828Y-43443149D01*
X170180000Y-43020850D01*
X170462172Y-43443149D01*
X170915391Y-43745981D01*
X171450000Y-43852321D01*
X171984609Y-43745981D01*
X172437828Y-43443149D01*
X172720000Y-43020850D01*
X173002172Y-43443149D01*
X173455391Y-43745981D01*
X173990000Y-43852321D01*
X174524609Y-43745981D01*
X174977828Y-43443149D01*
X175260000Y-43020850D01*
X175542172Y-43443149D01*
X175995391Y-43745981D01*
X176530000Y-43852321D01*
X177064609Y-43745981D01*
X177517828Y-43443149D01*
X177800000Y-43020850D01*
X178082172Y-43443149D01*
X178535391Y-43745981D01*
X179070000Y-43852321D01*
X179604609Y-43745981D01*
X180057828Y-43443149D01*
X180340000Y-43020850D01*
X180622172Y-43443149D01*
X180850000Y-43595379D01*
X180850000Y-45720000D01*
X180907852Y-46010839D01*
X181072599Y-46257401D01*
X185517599Y-50702401D01*
X185764160Y-50867148D01*
X186055000Y-50925000D01*
X205771354Y-50925000D01*
X205792757Y-50976800D01*
X206196077Y-51380824D01*
X206723309Y-51599750D01*
X207294187Y-51600248D01*
X207821800Y-51382243D01*
X208225824Y-50978923D01*
X208444750Y-50451691D01*
X208445248Y-49880813D01*
X208227243Y-49353200D01*
X207823923Y-48949176D01*
X207296691Y-48730250D01*
X206725813Y-48729752D01*
X206198200Y-48947757D01*
X205794176Y-49351077D01*
X205771785Y-49405000D01*
X186369802Y-49405000D01*
X182370000Y-45405198D01*
X182370000Y-43595379D01*
X182597828Y-43443149D01*
X182900660Y-42989930D01*
X183007000Y-42455321D01*
X183007000Y-41364679D01*
X182900660Y-40830070D01*
X182597828Y-40376851D01*
X182144609Y-40074019D01*
X181908228Y-40027000D01*
X185375772Y-40027000D01*
X185139391Y-40074019D01*
X184686172Y-40376851D01*
X184383340Y-40830070D01*
X184277000Y-41364679D01*
X184277000Y-42455321D01*
X184383340Y-42989930D01*
X184686172Y-43443149D01*
X185139391Y-43745981D01*
X185674000Y-43852321D01*
X186208609Y-43745981D01*
X186661828Y-43443149D01*
X186944000Y-43020850D01*
X187226172Y-43443149D01*
X187679391Y-43745981D01*
X188214000Y-43852321D01*
X188748609Y-43745981D01*
X189201828Y-43443149D01*
X189484000Y-43020850D01*
X189766172Y-43443149D01*
X190219391Y-43745981D01*
X190754000Y-43852321D01*
X191288609Y-43745981D01*
X191741828Y-43443149D01*
X192024000Y-43020850D01*
X192306172Y-43443149D01*
X192759391Y-43745981D01*
X193294000Y-43852321D01*
X193828609Y-43745981D01*
X194281828Y-43443149D01*
X194564000Y-43020850D01*
X194846172Y-43443149D01*
X195299391Y-43745981D01*
X195834000Y-43852321D01*
X196368609Y-43745981D01*
X196821828Y-43443149D01*
X197104000Y-43020850D01*
X197386172Y-43443149D01*
X197839391Y-43745981D01*
X198374000Y-43852321D01*
X198908609Y-43745981D01*
X199361828Y-43443149D01*
X199644000Y-43020850D01*
X199926172Y-43443149D01*
X200379391Y-43745981D01*
X200914000Y-43852321D01*
X201448609Y-43745981D01*
X201901828Y-43443149D01*
X202184000Y-43020850D01*
X202466172Y-43443149D01*
X202919391Y-43745981D01*
X203454000Y-43852321D01*
X203988609Y-43745981D01*
X204441828Y-43443149D01*
X204744660Y-42989930D01*
X204851000Y-42455321D01*
X204851000Y-41364679D01*
X204744660Y-40830070D01*
X204441828Y-40376851D01*
X203988609Y-40074019D01*
X203752228Y-40027000D01*
X208235772Y-40027000D01*
X207999391Y-40074019D01*
X207546172Y-40376851D01*
X207243340Y-40830070D01*
X207137000Y-41364679D01*
X207137000Y-42455321D01*
X207243340Y-42989930D01*
X207546172Y-43443149D01*
X207774000Y-43595379D01*
X207774000Y-45339000D01*
X207831852Y-45629839D01*
X207996599Y-45876401D01*
X209425000Y-47304802D01*
X209425000Y-50800000D01*
X209482852Y-51090839D01*
X209647599Y-51337401D01*
X215795106Y-57484908D01*
X215714833Y-57484838D01*
X215371057Y-57626883D01*
X215107808Y-57889673D01*
X214965162Y-58233201D01*
X214964838Y-58605167D01*
X215106883Y-58948943D01*
X215140000Y-58982118D01*
X215140000Y-64770000D01*
X215197852Y-65060839D01*
X215362599Y-65307401D01*
X218947975Y-68892777D01*
X218947758Y-69141661D01*
X219159990Y-69655303D01*
X219552630Y-70048629D01*
X220065900Y-70261757D01*
X220621661Y-70262242D01*
X221135303Y-70050010D01*
X221528629Y-69657370D01*
X221741757Y-69144100D01*
X221742242Y-68588339D01*
X221530010Y-68074697D01*
X221137370Y-67681371D01*
X220977772Y-67615100D01*
X221135303Y-67550010D01*
X221528629Y-67157370D01*
X221564765Y-67070345D01*
X221580839Y-67067148D01*
X221827401Y-66902401D01*
X223422401Y-65307401D01*
X223587148Y-65060839D01*
X223645000Y-64770000D01*
X223645000Y-46355000D01*
X223587148Y-46064161D01*
X223422401Y-45817599D01*
X221994000Y-44389198D01*
X221994000Y-43595379D01*
X222221828Y-43443149D01*
X222504000Y-43020850D01*
X222786172Y-43443149D01*
X223239391Y-43745981D01*
X223774000Y-43852321D01*
X224308609Y-43745981D01*
X224761828Y-43443149D01*
X225044000Y-43020850D01*
X225326172Y-43443149D01*
X225779391Y-43745981D01*
X226314000Y-43852321D01*
X226766658Y-43762282D01*
X228451323Y-43762282D01*
X228668252Y-44129730D01*
X229628518Y-44517853D01*
X230664216Y-44508955D01*
X231579748Y-44129730D01*
X231796677Y-43762282D01*
X230124000Y-42089605D01*
X228451323Y-43762282D01*
X226766658Y-43762282D01*
X226848609Y-43745981D01*
X227301828Y-43443149D01*
X227604660Y-42989930D01*
X227651358Y-42755163D01*
X227904270Y-43365748D01*
X228271718Y-43582677D01*
X229944395Y-41910000D01*
X230303605Y-41910000D01*
X231976282Y-43582677D01*
X232343730Y-43365748D01*
X232680090Y-42533551D01*
X232748990Y-42700303D01*
X233141630Y-43093629D01*
X233349512Y-43179949D01*
X233143697Y-43264990D01*
X232750371Y-43657630D01*
X232537243Y-44170900D01*
X232536758Y-44726661D01*
X232748990Y-45240303D01*
X233141630Y-45633629D01*
X233349512Y-45719949D01*
X233143697Y-45804990D01*
X232750371Y-46197630D01*
X232537243Y-46710900D01*
X232536758Y-47266661D01*
X232748990Y-47780303D01*
X233141630Y-48173629D01*
X233349512Y-48259949D01*
X233143697Y-48344990D01*
X232750371Y-48737630D01*
X232537243Y-49250900D01*
X232536758Y-49806661D01*
X232748990Y-50320303D01*
X233141630Y-50713629D01*
X233349512Y-50799949D01*
X233143697Y-50884990D01*
X232750371Y-51277630D01*
X232537243Y-51790900D01*
X232536758Y-52346661D01*
X232748990Y-52860303D01*
X233141630Y-53253629D01*
X233349512Y-53339949D01*
X233143697Y-53424990D01*
X232750371Y-53817630D01*
X232537243Y-54330900D01*
X232536758Y-54886661D01*
X232748990Y-55400303D01*
X233141630Y-55793629D01*
X233349512Y-55879949D01*
X233143697Y-55964990D01*
X232750371Y-56357630D01*
X232537243Y-56870900D01*
X232536758Y-57426661D01*
X232748990Y-57940303D01*
X233141630Y-58333629D01*
X233349512Y-58419949D01*
X233143697Y-58504990D01*
X232750371Y-58897630D01*
X232537243Y-59410900D01*
X232536758Y-59966661D01*
X232748990Y-60480303D01*
X233141630Y-60873629D01*
X233349512Y-60959949D01*
X233143697Y-61044990D01*
X232750371Y-61437630D01*
X232537243Y-61950900D01*
X232536758Y-62506661D01*
X232748990Y-63020303D01*
X233141630Y-63413629D01*
X233349512Y-63499949D01*
X233143697Y-63584990D01*
X232750371Y-63977630D01*
X232537243Y-64490900D01*
X232536758Y-65046661D01*
X232748990Y-65560303D01*
X233141630Y-65953629D01*
X233349512Y-66039949D01*
X233143697Y-66124990D01*
X232750371Y-66517630D01*
X232537243Y-67030900D01*
X232536758Y-67586661D01*
X232748990Y-68100303D01*
X233141630Y-68493629D01*
X233349512Y-68579949D01*
X233143697Y-68664990D01*
X232750371Y-69057630D01*
X232537243Y-69570900D01*
X232536758Y-70126661D01*
X232748990Y-70640303D01*
X233141630Y-71033629D01*
X233349512Y-71119949D01*
X233143697Y-71204990D01*
X232750371Y-71597630D01*
X232537243Y-72110900D01*
X232536758Y-72666661D01*
X232748990Y-73180303D01*
X233141630Y-73573629D01*
X233349512Y-73659949D01*
X233143697Y-73744990D01*
X232750371Y-74137630D01*
X232537243Y-74650900D01*
X232536758Y-75206661D01*
X232748990Y-75720303D01*
X233141630Y-76113629D01*
X233349512Y-76199949D01*
X233143697Y-76284990D01*
X232750371Y-76677630D01*
X232537243Y-77190900D01*
X232536758Y-77746661D01*
X232748990Y-78260303D01*
X233141630Y-78653629D01*
X233349512Y-78739949D01*
X233143697Y-78824990D01*
X232750371Y-79217630D01*
X232537243Y-79730900D01*
X232536758Y-80286661D01*
X232748990Y-80800303D01*
X233141630Y-81193629D01*
X233349512Y-81279949D01*
X233143697Y-81364990D01*
X232750371Y-81757630D01*
X232537243Y-82270900D01*
X232536758Y-82826661D01*
X232748990Y-83340303D01*
X233141630Y-83733629D01*
X233333727Y-83813395D01*
X233202857Y-83867603D01*
X233133392Y-84109787D01*
X233934000Y-84910395D01*
X234734608Y-84109787D01*
X234665143Y-83867603D01*
X234524682Y-83817491D01*
X234724303Y-83735010D01*
X235117629Y-83342370D01*
X235203949Y-83134488D01*
X235288990Y-83340303D01*
X235681630Y-83733629D01*
X235873727Y-83813395D01*
X235742857Y-83867603D01*
X235673392Y-84109787D01*
X236474000Y-84910395D01*
X237274608Y-84109787D01*
X237205143Y-83867603D01*
X237064682Y-83817491D01*
X237264303Y-83735010D01*
X237657629Y-83342370D01*
X237870757Y-82829100D01*
X237871242Y-82273339D01*
X237659010Y-81759697D01*
X237266370Y-81366371D01*
X237058488Y-81280051D01*
X237264303Y-81195010D01*
X237657629Y-80802370D01*
X237870757Y-80289100D01*
X237871242Y-79733339D01*
X237659010Y-79219697D01*
X237266370Y-78826371D01*
X237058488Y-78740051D01*
X237264303Y-78655010D01*
X237657629Y-78262370D01*
X237870757Y-77749100D01*
X237871242Y-77193339D01*
X237659010Y-76679697D01*
X237266370Y-76286371D01*
X237058488Y-76200051D01*
X237264303Y-76115010D01*
X237657629Y-75722370D01*
X237870757Y-75209100D01*
X237871242Y-74653339D01*
X237659010Y-74139697D01*
X237266370Y-73746371D01*
X237058488Y-73660051D01*
X237264303Y-73575010D01*
X237657629Y-73182370D01*
X237870757Y-72669100D01*
X237871242Y-72113339D01*
X237659010Y-71599697D01*
X237266370Y-71206371D01*
X237058488Y-71120051D01*
X237264303Y-71035010D01*
X237657629Y-70642370D01*
X237870757Y-70129100D01*
X237871242Y-69573339D01*
X237659010Y-69059697D01*
X237266370Y-68666371D01*
X237058488Y-68580051D01*
X237264303Y-68495010D01*
X237657629Y-68102370D01*
X237870757Y-67589100D01*
X237871242Y-67033339D01*
X237659010Y-66519697D01*
X237266370Y-66126371D01*
X237058488Y-66040051D01*
X237264303Y-65955010D01*
X237657629Y-65562370D01*
X237870757Y-65049100D01*
X237871242Y-64493339D01*
X237659010Y-63979697D01*
X237266370Y-63586371D01*
X237058488Y-63500051D01*
X237264303Y-63415010D01*
X237657629Y-63022370D01*
X237870757Y-62509100D01*
X237871242Y-61953339D01*
X237659010Y-61439697D01*
X237266370Y-61046371D01*
X237058488Y-60960051D01*
X237264303Y-60875010D01*
X237657629Y-60482370D01*
X237870757Y-59969100D01*
X237871242Y-59413339D01*
X237659010Y-58899697D01*
X237266370Y-58506371D01*
X237058488Y-58420051D01*
X237264303Y-58335010D01*
X237657629Y-57942370D01*
X237870757Y-57429100D01*
X237871242Y-56873339D01*
X237659010Y-56359697D01*
X237266370Y-55966371D01*
X237058488Y-55880051D01*
X237264303Y-55795010D01*
X237657629Y-55402370D01*
X237870757Y-54889100D01*
X237871242Y-54333339D01*
X237659010Y-53819697D01*
X237266370Y-53426371D01*
X237058488Y-53340051D01*
X237264303Y-53255010D01*
X237657629Y-52862370D01*
X237870757Y-52349100D01*
X237871242Y-51793339D01*
X237659010Y-51279697D01*
X237266370Y-50886371D01*
X237058488Y-50800051D01*
X237264303Y-50715010D01*
X237657629Y-50322370D01*
X237870757Y-49809100D01*
X237871242Y-49253339D01*
X237659010Y-48739697D01*
X237266370Y-48346371D01*
X237058488Y-48260051D01*
X237264303Y-48175010D01*
X237657629Y-47782370D01*
X237870757Y-47269100D01*
X237871242Y-46713339D01*
X237659010Y-46199697D01*
X237266370Y-45806371D01*
X237058488Y-45720051D01*
X237264303Y-45635010D01*
X237657629Y-45242370D01*
X237870757Y-44729100D01*
X237871242Y-44173339D01*
X237659010Y-43659697D01*
X237266370Y-43266371D01*
X237058488Y-43180051D01*
X237264303Y-43095010D01*
X237657629Y-42702370D01*
X237870757Y-42189100D01*
X237871242Y-41633339D01*
X237659010Y-41119697D01*
X237266370Y-40726371D01*
X236753100Y-40513243D01*
X236197339Y-40512758D01*
X235683697Y-40724990D01*
X235290371Y-41117630D01*
X235204051Y-41325512D01*
X235119010Y-41119697D01*
X234726370Y-40726371D01*
X234213100Y-40513243D01*
X233657339Y-40512758D01*
X233143697Y-40724990D01*
X232750371Y-41117630D01*
X232684359Y-41276605D01*
X232343730Y-40454252D01*
X231976282Y-40237323D01*
X230303605Y-41910000D01*
X229944395Y-41910000D01*
X228271718Y-40237323D01*
X227904270Y-40454252D01*
X227653378Y-41074992D01*
X227604660Y-40830070D01*
X227301828Y-40376851D01*
X226848609Y-40074019D01*
X226612228Y-40027000D01*
X228469458Y-40027000D01*
X228451323Y-40057718D01*
X230124000Y-41730395D01*
X231796677Y-40057718D01*
X231778542Y-40027000D01*
X237243820Y-40027000D01*
X238173000Y-41049098D01*
X238173000Y-52400000D01*
X238183006Y-52449410D01*
X238211908Y-52491481D01*
X240872832Y-55053852D01*
X240773159Y-87048804D01*
X238839605Y-89066426D01*
X238693730Y-88714252D01*
X238326282Y-88497323D01*
X236653605Y-90170000D01*
X238326282Y-91842677D01*
X238390609Y-91804701D01*
X238377450Y-92173140D01*
X238057399Y-92173507D01*
X238146677Y-92022282D01*
X236474000Y-90349605D01*
X234801323Y-92022282D01*
X234892741Y-92177132D01*
X155451537Y-92268130D01*
X155596677Y-92022282D01*
X153924000Y-90349605D01*
X152251323Y-92022282D01*
X152398528Y-92271627D01*
X151427730Y-92272739D01*
X151435140Y-90976009D01*
X151704270Y-91625748D01*
X152071718Y-91842677D01*
X153744395Y-90170000D01*
X154103605Y-90170000D01*
X155776282Y-91842677D01*
X156143730Y-91625748D01*
X156531853Y-90665482D01*
X156522955Y-89629784D01*
X156520841Y-89624679D01*
X166497000Y-89624679D01*
X166497000Y-90715321D01*
X166603340Y-91249930D01*
X166906172Y-91703149D01*
X167359391Y-92005981D01*
X167894000Y-92112321D01*
X168428609Y-92005981D01*
X168881828Y-91703149D01*
X169164000Y-91280850D01*
X169446172Y-91703149D01*
X169899391Y-92005981D01*
X170434000Y-92112321D01*
X170968609Y-92005981D01*
X171421828Y-91703149D01*
X171704000Y-91280850D01*
X171986172Y-91703149D01*
X172439391Y-92005981D01*
X172974000Y-92112321D01*
X173508609Y-92005981D01*
X173961828Y-91703149D01*
X174244000Y-91280850D01*
X174526172Y-91703149D01*
X174979391Y-92005981D01*
X175514000Y-92112321D01*
X176048609Y-92005981D01*
X176501828Y-91703149D01*
X176784000Y-91280850D01*
X177066172Y-91703149D01*
X177519391Y-92005981D01*
X178054000Y-92112321D01*
X178588609Y-92005981D01*
X179041828Y-91703149D01*
X179333330Y-91266887D01*
X179351941Y-91329941D01*
X179695974Y-91755630D01*
X180176723Y-92017260D01*
X180250930Y-92032220D01*
X180467000Y-91909720D01*
X180467000Y-90297000D01*
X180721000Y-90297000D01*
X180721000Y-91909720D01*
X180937070Y-92032220D01*
X181011277Y-92017260D01*
X181492026Y-91755630D01*
X181836059Y-91329941D01*
X181864000Y-91235277D01*
X181891941Y-91329941D01*
X182235974Y-91755630D01*
X182716723Y-92017260D01*
X182790930Y-92032220D01*
X183007000Y-91909720D01*
X183007000Y-90297000D01*
X180721000Y-90297000D01*
X180467000Y-90297000D01*
X180447000Y-90297000D01*
X180447000Y-90043000D01*
X180467000Y-90043000D01*
X180467000Y-88430280D01*
X180721000Y-88430280D01*
X180721000Y-90043000D01*
X183007000Y-90043000D01*
X183007000Y-88430280D01*
X183261000Y-88430280D01*
X183261000Y-90043000D01*
X183281000Y-90043000D01*
X183281000Y-90297000D01*
X183261000Y-90297000D01*
X183261000Y-91909720D01*
X183477070Y-92032220D01*
X183551277Y-92017260D01*
X184032026Y-91755630D01*
X184376059Y-91329941D01*
X184394670Y-91266887D01*
X184686172Y-91703149D01*
X185139391Y-92005981D01*
X185674000Y-92112321D01*
X186208609Y-92005981D01*
X186661828Y-91703149D01*
X186964660Y-91249930D01*
X187071000Y-90715321D01*
X187071000Y-89624679D01*
X189357000Y-89624679D01*
X189357000Y-90715321D01*
X189463340Y-91249930D01*
X189766172Y-91703149D01*
X190219391Y-92005981D01*
X190754000Y-92112321D01*
X191288609Y-92005981D01*
X191741828Y-91703149D01*
X192024000Y-91280850D01*
X192306172Y-91703149D01*
X192759391Y-92005981D01*
X193294000Y-92112321D01*
X193828609Y-92005981D01*
X194281828Y-91703149D01*
X194564000Y-91280850D01*
X194846172Y-91703149D01*
X195299391Y-92005981D01*
X195834000Y-92112321D01*
X196368609Y-92005981D01*
X196821828Y-91703149D01*
X197104000Y-91280850D01*
X197386172Y-91703149D01*
X197839391Y-92005981D01*
X198374000Y-92112321D01*
X198908609Y-92005981D01*
X199361828Y-91703149D01*
X199644000Y-91280850D01*
X199926172Y-91703149D01*
X200379391Y-92005981D01*
X200914000Y-92112321D01*
X201448609Y-92005981D01*
X201901828Y-91703149D01*
X202184000Y-91280850D01*
X202466172Y-91703149D01*
X202919391Y-92005981D01*
X203454000Y-92112321D01*
X203988609Y-92005981D01*
X204441828Y-91703149D01*
X204724000Y-91280850D01*
X205006172Y-91703149D01*
X205459391Y-92005981D01*
X205994000Y-92112321D01*
X206528609Y-92005981D01*
X206981828Y-91703149D01*
X207264000Y-91280850D01*
X207546172Y-91703149D01*
X207999391Y-92005981D01*
X208534000Y-92112321D01*
X209068609Y-92005981D01*
X209521828Y-91703149D01*
X209824660Y-91249930D01*
X209931000Y-90715321D01*
X209931000Y-89624679D01*
X212217000Y-89624679D01*
X212217000Y-90715321D01*
X212323340Y-91249930D01*
X212626172Y-91703149D01*
X213079391Y-92005981D01*
X213614000Y-92112321D01*
X214148609Y-92005981D01*
X214601828Y-91703149D01*
X214884000Y-91280850D01*
X215166172Y-91703149D01*
X215619391Y-92005981D01*
X216154000Y-92112321D01*
X216688609Y-92005981D01*
X217141828Y-91703149D01*
X217424000Y-91280850D01*
X217706172Y-91703149D01*
X218159391Y-92005981D01*
X218694000Y-92112321D01*
X219228609Y-92005981D01*
X219681828Y-91703149D01*
X219964000Y-91280850D01*
X220246172Y-91703149D01*
X220699391Y-92005981D01*
X221234000Y-92112321D01*
X221768609Y-92005981D01*
X222221828Y-91703149D01*
X222504000Y-91280850D01*
X222786172Y-91703149D01*
X223239391Y-92005981D01*
X223774000Y-92112321D01*
X224308609Y-92005981D01*
X224761828Y-91703149D01*
X225044000Y-91280850D01*
X225326172Y-91703149D01*
X225779391Y-92005981D01*
X226314000Y-92112321D01*
X226848609Y-92005981D01*
X227301828Y-91703149D01*
X227584000Y-91280850D01*
X227866172Y-91703149D01*
X228319391Y-92005981D01*
X228854000Y-92112321D01*
X229388609Y-92005981D01*
X229841828Y-91703149D01*
X230124000Y-91280850D01*
X230406172Y-91703149D01*
X230859391Y-92005981D01*
X231394000Y-92112321D01*
X231928609Y-92005981D01*
X232381828Y-91703149D01*
X232684660Y-91249930D01*
X232791000Y-90715321D01*
X232791000Y-89674518D01*
X233866147Y-89674518D01*
X233875045Y-90710216D01*
X234254270Y-91625748D01*
X234621718Y-91842677D01*
X236294395Y-90170000D01*
X234621718Y-88497323D01*
X234254270Y-88714252D01*
X233866147Y-89674518D01*
X232791000Y-89674518D01*
X232791000Y-89624679D01*
X232684660Y-89090070D01*
X232381828Y-88636851D01*
X231928609Y-88334019D01*
X231846659Y-88317718D01*
X234801323Y-88317718D01*
X236474000Y-89990395D01*
X238146677Y-88317718D01*
X237929748Y-87950270D01*
X236969482Y-87562147D01*
X235933784Y-87571045D01*
X235018252Y-87950270D01*
X234801323Y-88317718D01*
X231846659Y-88317718D01*
X231394000Y-88227679D01*
X230859391Y-88334019D01*
X230406172Y-88636851D01*
X230124000Y-89059150D01*
X229841828Y-88636851D01*
X229388609Y-88334019D01*
X228854000Y-88227679D01*
X228319391Y-88334019D01*
X227866172Y-88636851D01*
X227584000Y-89059150D01*
X227301828Y-88636851D01*
X226848609Y-88334019D01*
X226314000Y-88227679D01*
X225779391Y-88334019D01*
X225326172Y-88636851D01*
X225044000Y-89059150D01*
X224761828Y-88636851D01*
X224308609Y-88334019D01*
X223774000Y-88227679D01*
X223239391Y-88334019D01*
X222786172Y-88636851D01*
X222504000Y-89059150D01*
X222221828Y-88636851D01*
X221768609Y-88334019D01*
X221234000Y-88227679D01*
X220699391Y-88334019D01*
X220246172Y-88636851D01*
X219964000Y-89059150D01*
X219681828Y-88636851D01*
X219228609Y-88334019D01*
X218694000Y-88227679D01*
X218159391Y-88334019D01*
X217706172Y-88636851D01*
X217424000Y-89059150D01*
X217141828Y-88636851D01*
X216688609Y-88334019D01*
X216154000Y-88227679D01*
X215619391Y-88334019D01*
X215166172Y-88636851D01*
X214884000Y-89059150D01*
X214601828Y-88636851D01*
X214148609Y-88334019D01*
X213614000Y-88227679D01*
X213079391Y-88334019D01*
X212626172Y-88636851D01*
X212323340Y-89090070D01*
X212217000Y-89624679D01*
X209931000Y-89624679D01*
X209824660Y-89090070D01*
X209521828Y-88636851D01*
X209068609Y-88334019D01*
X208534000Y-88227679D01*
X207999391Y-88334019D01*
X207546172Y-88636851D01*
X207264000Y-89059150D01*
X206981828Y-88636851D01*
X206528609Y-88334019D01*
X205994000Y-88227679D01*
X205459391Y-88334019D01*
X205006172Y-88636851D01*
X204724000Y-89059150D01*
X204441828Y-88636851D01*
X203988609Y-88334019D01*
X203454000Y-88227679D01*
X202919391Y-88334019D01*
X202466172Y-88636851D01*
X202184000Y-89059150D01*
X201901828Y-88636851D01*
X201448609Y-88334019D01*
X200914000Y-88227679D01*
X200379391Y-88334019D01*
X199926172Y-88636851D01*
X199644000Y-89059150D01*
X199361828Y-88636851D01*
X198908609Y-88334019D01*
X198374000Y-88227679D01*
X197839391Y-88334019D01*
X197386172Y-88636851D01*
X197104000Y-89059150D01*
X196821828Y-88636851D01*
X196368609Y-88334019D01*
X195834000Y-88227679D01*
X195299391Y-88334019D01*
X194846172Y-88636851D01*
X194564000Y-89059150D01*
X194281828Y-88636851D01*
X193828609Y-88334019D01*
X193294000Y-88227679D01*
X192759391Y-88334019D01*
X192306172Y-88636851D01*
X192024000Y-89059150D01*
X191741828Y-88636851D01*
X191288609Y-88334019D01*
X190754000Y-88227679D01*
X190219391Y-88334019D01*
X189766172Y-88636851D01*
X189463340Y-89090070D01*
X189357000Y-89624679D01*
X187071000Y-89624679D01*
X186964660Y-89090070D01*
X186661828Y-88636851D01*
X186208609Y-88334019D01*
X185674000Y-88227679D01*
X185139391Y-88334019D01*
X184686172Y-88636851D01*
X184394670Y-89073113D01*
X184376059Y-89010059D01*
X184032026Y-88584370D01*
X183551277Y-88322740D01*
X183477070Y-88307780D01*
X183261000Y-88430280D01*
X183007000Y-88430280D01*
X182790930Y-88307780D01*
X182716723Y-88322740D01*
X182235974Y-88584370D01*
X181891941Y-89010059D01*
X181864000Y-89104723D01*
X181836059Y-89010059D01*
X181492026Y-88584370D01*
X181011277Y-88322740D01*
X180937070Y-88307780D01*
X180721000Y-88430280D01*
X180467000Y-88430280D01*
X180250930Y-88307780D01*
X180176723Y-88322740D01*
X179695974Y-88584370D01*
X179351941Y-89010059D01*
X179333330Y-89073113D01*
X179324000Y-89059150D01*
X179324000Y-88537052D01*
X180866051Y-86995000D01*
X183514995Y-86995000D01*
X183515000Y-86995001D01*
X184001008Y-86898327D01*
X184413026Y-86623026D01*
X184965839Y-86070213D01*
X233133392Y-86070213D01*
X233202857Y-86312397D01*
X233726302Y-86499144D01*
X234281368Y-86471362D01*
X234665143Y-86312397D01*
X234734608Y-86070213D01*
X235673392Y-86070213D01*
X235742857Y-86312397D01*
X236266302Y-86499144D01*
X236821368Y-86471362D01*
X237205143Y-86312397D01*
X237274608Y-86070213D01*
X236474000Y-85269605D01*
X235673392Y-86070213D01*
X234734608Y-86070213D01*
X233934000Y-85269605D01*
X233133392Y-86070213D01*
X184965839Y-86070213D01*
X186153750Y-84882302D01*
X232524856Y-84882302D01*
X232552638Y-85437368D01*
X232711603Y-85821143D01*
X232953787Y-85890608D01*
X233754395Y-85090000D01*
X234113605Y-85090000D01*
X234914213Y-85890608D01*
X235156397Y-85821143D01*
X235200453Y-85697656D01*
X235251603Y-85821143D01*
X235493787Y-85890608D01*
X236294395Y-85090000D01*
X236653605Y-85090000D01*
X237454213Y-85890608D01*
X237696397Y-85821143D01*
X237883144Y-85297698D01*
X237855362Y-84742632D01*
X237696397Y-84358857D01*
X237454213Y-84289392D01*
X236653605Y-85090000D01*
X236294395Y-85090000D01*
X235493787Y-84289392D01*
X235251603Y-84358857D01*
X235207547Y-84482344D01*
X235156397Y-84358857D01*
X234914213Y-84289392D01*
X234113605Y-85090000D01*
X233754395Y-85090000D01*
X232953787Y-84289392D01*
X232711603Y-84358857D01*
X232524856Y-84882302D01*
X186153750Y-84882302D01*
X187588026Y-83448026D01*
X187863327Y-83036008D01*
X187960001Y-82550000D01*
X187863327Y-82063992D01*
X187588026Y-81651974D01*
X187176008Y-81376673D01*
X186690000Y-81279999D01*
X186203992Y-81376673D01*
X185791974Y-81651974D01*
X182988948Y-84455000D01*
X180340000Y-84455000D01*
X180203999Y-84482052D01*
X181390608Y-83295443D01*
X181524151Y-83268880D01*
X181989698Y-82957811D01*
X182300767Y-82492264D01*
X182410000Y-81943113D01*
X182410000Y-81886887D01*
X182300767Y-81337736D01*
X182245000Y-81254275D01*
X182245000Y-80645000D01*
X182148327Y-80158992D01*
X181873026Y-79746974D01*
X179237713Y-77111661D01*
X218947758Y-77111661D01*
X219159990Y-77625303D01*
X219552630Y-78018629D01*
X219712228Y-78084900D01*
X219554697Y-78149990D01*
X219161371Y-78542630D01*
X218948243Y-79055900D01*
X218947758Y-79611661D01*
X219159990Y-80125303D01*
X219552630Y-80518629D01*
X220065900Y-80731757D01*
X220621661Y-80732242D01*
X221135303Y-80520010D01*
X221528629Y-80127370D01*
X221741757Y-79614100D01*
X221742242Y-79058339D01*
X221530010Y-78544697D01*
X221137370Y-78151371D01*
X220977772Y-78085100D01*
X221135303Y-78020010D01*
X221528629Y-77627370D01*
X221741757Y-77114100D01*
X221742242Y-76558339D01*
X221530010Y-76044697D01*
X221217858Y-75732000D01*
X221233310Y-75732000D01*
X221466699Y-75635327D01*
X221645327Y-75456698D01*
X221742000Y-75223309D01*
X221742000Y-74620750D01*
X221583250Y-74462000D01*
X220472000Y-74462000D01*
X220472000Y-74482000D01*
X220218000Y-74482000D01*
X220218000Y-74462000D01*
X219106750Y-74462000D01*
X218948000Y-74620750D01*
X218948000Y-75223309D01*
X219044673Y-75456698D01*
X219223301Y-75635327D01*
X219456690Y-75732000D01*
X219472544Y-75732000D01*
X219161371Y-76042630D01*
X218948243Y-76555900D01*
X218947758Y-77111661D01*
X179237713Y-77111661D01*
X176705239Y-74579187D01*
X179539752Y-74579187D01*
X179757757Y-75106800D01*
X180161077Y-75510824D01*
X180688309Y-75729750D01*
X181259187Y-75730248D01*
X181786800Y-75512243D01*
X182190824Y-75108923D01*
X182409750Y-74581691D01*
X182410248Y-74010813D01*
X182192243Y-73483200D01*
X182155798Y-73446691D01*
X218948000Y-73446691D01*
X218948000Y-74049250D01*
X219106750Y-74208000D01*
X220218000Y-74208000D01*
X220218000Y-73096750D01*
X220472000Y-73096750D01*
X220472000Y-74208000D01*
X221583250Y-74208000D01*
X221742000Y-74049250D01*
X221742000Y-73446691D01*
X221645327Y-73213302D01*
X221466699Y-73034673D01*
X221233310Y-72938000D01*
X220630750Y-72938000D01*
X220472000Y-73096750D01*
X220218000Y-73096750D01*
X220059250Y-72938000D01*
X219456690Y-72938000D01*
X219223301Y-73034673D01*
X219044673Y-73213302D01*
X218948000Y-73446691D01*
X182155798Y-73446691D01*
X181788923Y-73079176D01*
X181261691Y-72860250D01*
X180690813Y-72859752D01*
X180163200Y-73077757D01*
X179759176Y-73481077D01*
X179540250Y-74008309D01*
X179539752Y-74579187D01*
X176705239Y-74579187D01*
X175523026Y-73396974D01*
X175111008Y-73121673D01*
X174625000Y-73024999D01*
X174138992Y-73121673D01*
X173726974Y-73396974D01*
X173451673Y-73808992D01*
X173354999Y-74295000D01*
X173451673Y-74781008D01*
X173726974Y-75193026D01*
X179705000Y-81171052D01*
X179705000Y-81254275D01*
X179649233Y-81337736D01*
X179622670Y-81471279D01*
X174615974Y-86477974D01*
X174340673Y-86889992D01*
X174243999Y-87376000D01*
X174244000Y-87376005D01*
X174244000Y-89059150D01*
X173961828Y-88636851D01*
X173508609Y-88334019D01*
X172974000Y-88227679D01*
X172439391Y-88334019D01*
X171986172Y-88636851D01*
X171704000Y-89059150D01*
X171421828Y-88636851D01*
X170968609Y-88334019D01*
X170434000Y-88227679D01*
X169899391Y-88334019D01*
X169446172Y-88636851D01*
X169164000Y-89059150D01*
X168881828Y-88636851D01*
X168428609Y-88334019D01*
X167894000Y-88227679D01*
X167359391Y-88334019D01*
X166906172Y-88636851D01*
X166603340Y-89090070D01*
X166497000Y-89624679D01*
X156520841Y-89624679D01*
X156143730Y-88714252D01*
X155776282Y-88497323D01*
X154103605Y-90170000D01*
X153744395Y-90170000D01*
X152071718Y-88497323D01*
X151704270Y-88714252D01*
X151444390Y-89357228D01*
X151450330Y-88317718D01*
X152251323Y-88317718D01*
X153924000Y-89990395D01*
X155596677Y-88317718D01*
X155379748Y-87950270D01*
X154419482Y-87562147D01*
X153383784Y-87571045D01*
X152468252Y-87950270D01*
X152251323Y-88317718D01*
X151450330Y-88317718D01*
X151487597Y-81795750D01*
X165608000Y-81795750D01*
X165608000Y-82398309D01*
X165704673Y-82631698D01*
X165883301Y-82810327D01*
X166116690Y-82907000D01*
X166719250Y-82907000D01*
X166878000Y-82748250D01*
X166878000Y-81637000D01*
X167132000Y-81637000D01*
X167132000Y-82748250D01*
X167290750Y-82907000D01*
X167893310Y-82907000D01*
X168126699Y-82810327D01*
X168305327Y-82631698D01*
X168402000Y-82398309D01*
X168402000Y-81795750D01*
X168243250Y-81637000D01*
X167132000Y-81637000D01*
X166878000Y-81637000D01*
X165766750Y-81637000D01*
X165608000Y-81795750D01*
X151487597Y-81795750D01*
X151530506Y-74286661D01*
X165607758Y-74286661D01*
X165819990Y-74800303D01*
X166212630Y-75193629D01*
X166372228Y-75259900D01*
X166214697Y-75324990D01*
X165821371Y-75717630D01*
X165608243Y-76230900D01*
X165607758Y-76786661D01*
X165819990Y-77300303D01*
X166212630Y-77693629D01*
X166372228Y-77759900D01*
X166214697Y-77824990D01*
X165821371Y-78217630D01*
X165608243Y-78730900D01*
X165607758Y-79286661D01*
X165819990Y-79800303D01*
X166132142Y-80113000D01*
X166116690Y-80113000D01*
X165883301Y-80209673D01*
X165704673Y-80388302D01*
X165608000Y-80621691D01*
X165608000Y-81224250D01*
X165766750Y-81383000D01*
X166878000Y-81383000D01*
X166878000Y-81363000D01*
X167132000Y-81363000D01*
X167132000Y-81383000D01*
X168243250Y-81383000D01*
X168402000Y-81224250D01*
X168402000Y-80621691D01*
X168305327Y-80388302D01*
X168126699Y-80209673D01*
X167893310Y-80113000D01*
X167877456Y-80113000D01*
X168188629Y-79802370D01*
X168401757Y-79289100D01*
X168402242Y-78733339D01*
X168388857Y-78700945D01*
X170717401Y-76372401D01*
X170882148Y-76125839D01*
X170940000Y-75835000D01*
X170940000Y-74609802D01*
X172224680Y-73325122D01*
X172270167Y-73325162D01*
X172613943Y-73183117D01*
X172877192Y-72920327D01*
X173019838Y-72576799D01*
X173020162Y-72204833D01*
X172952365Y-72040750D01*
X211825000Y-72040750D01*
X211825000Y-72781309D01*
X211921673Y-73014698D01*
X212100301Y-73193327D01*
X212333690Y-73290000D01*
X213074250Y-73290000D01*
X213233000Y-73131250D01*
X213233000Y-71882000D01*
X213487000Y-71882000D01*
X213487000Y-73131250D01*
X213645750Y-73290000D01*
X214386310Y-73290000D01*
X214619699Y-73193327D01*
X214798327Y-73014698D01*
X214895000Y-72781309D01*
X214895000Y-72040750D01*
X214736250Y-71882000D01*
X213487000Y-71882000D01*
X213233000Y-71882000D01*
X211983750Y-71882000D01*
X211825000Y-72040750D01*
X172952365Y-72040750D01*
X172878117Y-71861057D01*
X172615327Y-71597808D01*
X172271799Y-71455162D01*
X171899833Y-71454838D01*
X171556057Y-71596883D01*
X171292808Y-71859673D01*
X171150162Y-72203201D01*
X171150121Y-72250077D01*
X169642599Y-73757599D01*
X169477852Y-74004161D01*
X169420000Y-74295000D01*
X169420000Y-75520198D01*
X168401976Y-76538222D01*
X168402242Y-76233339D01*
X168190010Y-75719697D01*
X167797370Y-75326371D01*
X167637772Y-75260100D01*
X167795303Y-75195010D01*
X168188629Y-74802370D01*
X168401757Y-74289100D01*
X168402242Y-73733339D01*
X168190010Y-73219697D01*
X167797370Y-72826371D01*
X167284100Y-72613243D01*
X166728339Y-72612758D01*
X166214697Y-72824990D01*
X165821371Y-73217630D01*
X165608243Y-73730900D01*
X165607758Y-74286661D01*
X151530506Y-74286661D01*
X151554234Y-70134187D01*
X179539752Y-70134187D01*
X179757757Y-70661800D01*
X180161077Y-71065824D01*
X180688309Y-71284750D01*
X181259187Y-71285248D01*
X181786800Y-71067243D01*
X182190824Y-70663923D01*
X182409750Y-70136691D01*
X182410248Y-69565813D01*
X182192243Y-69038200D01*
X181788923Y-68634176D01*
X181261691Y-68415250D01*
X180690813Y-68414752D01*
X180163200Y-68632757D01*
X179759176Y-69036077D01*
X179540250Y-69563309D01*
X179539752Y-70134187D01*
X151554234Y-70134187D01*
X151561711Y-68825750D01*
X165608000Y-68825750D01*
X165608000Y-69428309D01*
X165704673Y-69661698D01*
X165883301Y-69840327D01*
X166116690Y-69937000D01*
X166719250Y-69937000D01*
X166878000Y-69778250D01*
X166878000Y-68667000D01*
X167132000Y-68667000D01*
X167132000Y-69778250D01*
X167290750Y-69937000D01*
X167893310Y-69937000D01*
X168126699Y-69840327D01*
X168305327Y-69661698D01*
X168402000Y-69428309D01*
X168402000Y-68825750D01*
X168243250Y-68667000D01*
X167132000Y-68667000D01*
X166878000Y-68667000D01*
X165766750Y-68667000D01*
X165608000Y-68825750D01*
X151561711Y-68825750D01*
X151621173Y-58420000D01*
X155574999Y-58420000D01*
X155575000Y-58420005D01*
X155575000Y-60959995D01*
X155574999Y-60960000D01*
X155671673Y-61446008D01*
X155946974Y-61858026D01*
X161026974Y-66938026D01*
X161438992Y-67213327D01*
X161925000Y-67310001D01*
X161925005Y-67310000D01*
X165812974Y-67310000D01*
X165704673Y-67418302D01*
X165608000Y-67651691D01*
X165608000Y-68254250D01*
X165766750Y-68413000D01*
X166878000Y-68413000D01*
X166878000Y-68393000D01*
X167132000Y-68393000D01*
X167132000Y-68413000D01*
X168243250Y-68413000D01*
X168402000Y-68254250D01*
X168402000Y-67651691D01*
X168305327Y-67418302D01*
X168197026Y-67310000D01*
X186690000Y-67310000D01*
X187176008Y-67213327D01*
X187588026Y-66938026D01*
X187863327Y-66526008D01*
X187960000Y-66040000D01*
X187863327Y-65553992D01*
X187588026Y-65141974D01*
X187176008Y-64866673D01*
X186690000Y-64770000D01*
X167686419Y-64770000D01*
X167795303Y-64725010D01*
X168188629Y-64332370D01*
X168401757Y-63819100D01*
X168402242Y-63263339D01*
X168190010Y-62749697D01*
X167797370Y-62356371D01*
X167425331Y-62201887D01*
X179540000Y-62201887D01*
X179540000Y-62258113D01*
X179649233Y-62807264D01*
X179960302Y-63272811D01*
X180425849Y-63583880D01*
X180975000Y-63693113D01*
X181524151Y-63583880D01*
X181989698Y-63272811D01*
X182300767Y-62807264D01*
X182410000Y-62258113D01*
X182410000Y-62201887D01*
X182300767Y-61652736D01*
X181989698Y-61187189D01*
X181524151Y-60876120D01*
X180975000Y-60766887D01*
X180425849Y-60876120D01*
X179960302Y-61187189D01*
X179649233Y-61652736D01*
X179540000Y-62201887D01*
X167425331Y-62201887D01*
X167284100Y-62143243D01*
X166728339Y-62142758D01*
X166214697Y-62354990D01*
X165821371Y-62747630D01*
X165608243Y-63260900D01*
X165607758Y-63816661D01*
X165819990Y-64330303D01*
X166212630Y-64723629D01*
X166324304Y-64770000D01*
X162451052Y-64770000D01*
X158115000Y-60433948D01*
X158115000Y-58946052D01*
X159030302Y-58030750D01*
X165608000Y-58030750D01*
X165608000Y-58633309D01*
X165704673Y-58866698D01*
X165883301Y-59045327D01*
X166116690Y-59142000D01*
X166719250Y-59142000D01*
X166878000Y-58983250D01*
X166878000Y-57872000D01*
X167132000Y-57872000D01*
X167132000Y-58983250D01*
X167290750Y-59142000D01*
X167893310Y-59142000D01*
X168126699Y-59045327D01*
X168305327Y-58866698D01*
X168402000Y-58633309D01*
X168402000Y-58030750D01*
X168243250Y-57872000D01*
X167132000Y-57872000D01*
X166878000Y-57872000D01*
X165766750Y-57872000D01*
X165608000Y-58030750D01*
X159030302Y-58030750D01*
X159304165Y-57756887D01*
X205575000Y-57756887D01*
X205575000Y-57813113D01*
X205684233Y-58362264D01*
X205995302Y-58827811D01*
X206250000Y-58997995D01*
X206250000Y-66675000D01*
X206307852Y-66965839D01*
X206472599Y-67212401D01*
X209012599Y-69752401D01*
X209259160Y-69917148D01*
X209307414Y-69926746D01*
X209550000Y-69975000D01*
X212013154Y-69975000D01*
X212057932Y-70083371D01*
X212235092Y-70260841D01*
X212100301Y-70316673D01*
X211921673Y-70495302D01*
X211825000Y-70728691D01*
X211825000Y-71469250D01*
X211983750Y-71628000D01*
X213233000Y-71628000D01*
X213233000Y-71608000D01*
X213487000Y-71608000D01*
X213487000Y-71628000D01*
X214736250Y-71628000D01*
X214895000Y-71469250D01*
X214895000Y-70728691D01*
X214798327Y-70495302D01*
X214619699Y-70316673D01*
X214485006Y-70260881D01*
X214660551Y-70085643D01*
X214894733Y-69521670D01*
X214895265Y-68911009D01*
X214662068Y-68346629D01*
X214230643Y-67914449D01*
X213666670Y-67680267D01*
X213056009Y-67679735D01*
X212491629Y-67912932D01*
X212059449Y-68344357D01*
X212013506Y-68455000D01*
X209864802Y-68455000D01*
X207770000Y-66360198D01*
X207770000Y-58997995D01*
X208024698Y-58827811D01*
X208335767Y-58362264D01*
X208445000Y-57813113D01*
X208445000Y-57756887D01*
X208335767Y-57207736D01*
X208024698Y-56742189D01*
X207559151Y-56431120D01*
X207010000Y-56321887D01*
X206460849Y-56431120D01*
X205995302Y-56742189D01*
X205684233Y-57207736D01*
X205575000Y-57756887D01*
X159304165Y-57756887D01*
X163046052Y-54015000D01*
X166323581Y-54015000D01*
X166214697Y-54059990D01*
X165821371Y-54452630D01*
X165608243Y-54965900D01*
X165607758Y-55521661D01*
X165819990Y-56035303D01*
X166132142Y-56348000D01*
X166116690Y-56348000D01*
X165883301Y-56444673D01*
X165704673Y-56623302D01*
X165608000Y-56856691D01*
X165608000Y-57459250D01*
X165766750Y-57618000D01*
X166878000Y-57618000D01*
X166878000Y-57598000D01*
X167132000Y-57598000D01*
X167132000Y-57618000D01*
X168243250Y-57618000D01*
X168402000Y-57459250D01*
X168402000Y-56856691D01*
X168305327Y-56623302D01*
X168126699Y-56444673D01*
X167893310Y-56348000D01*
X167877456Y-56348000D01*
X168188629Y-56037370D01*
X168202070Y-56005000D01*
X186690000Y-56005000D01*
X186980839Y-55947148D01*
X187227401Y-55782401D01*
X188099680Y-54910122D01*
X188145167Y-54910162D01*
X188488943Y-54768117D01*
X188752192Y-54505327D01*
X188894838Y-54161799D01*
X188895162Y-53789833D01*
X188753117Y-53446057D01*
X188490327Y-53182808D01*
X188146799Y-53040162D01*
X187774833Y-53039838D01*
X187431057Y-53181883D01*
X187167808Y-53444673D01*
X187025162Y-53788201D01*
X187025121Y-53835077D01*
X186375198Y-54485000D01*
X168202531Y-54485000D01*
X168190010Y-54454697D01*
X167797370Y-54061371D01*
X167637772Y-53995100D01*
X167795303Y-53930010D01*
X168188629Y-53537370D01*
X168401757Y-53024100D01*
X168402242Y-52468339D01*
X168190010Y-51954697D01*
X167797370Y-51561371D01*
X167284100Y-51348243D01*
X166728339Y-51347758D01*
X166420389Y-51475000D01*
X162520005Y-51475000D01*
X162520000Y-51474999D01*
X162033992Y-51571673D01*
X161621974Y-51846974D01*
X155946974Y-57521974D01*
X155671673Y-57933992D01*
X155574999Y-58420000D01*
X151621173Y-58420000D01*
X151704931Y-43762282D01*
X153521323Y-43762282D01*
X153738252Y-44129730D01*
X154698518Y-44517853D01*
X155734216Y-44508955D01*
X156649748Y-44129730D01*
X156866677Y-43762282D01*
X155194000Y-42089605D01*
X153521323Y-43762282D01*
X151704931Y-43762282D01*
X151718347Y-41414518D01*
X152586147Y-41414518D01*
X152595045Y-42450216D01*
X152974270Y-43365748D01*
X153341718Y-43582677D01*
X155014395Y-41910000D01*
X153341718Y-40237323D01*
X152974270Y-40454252D01*
X152586147Y-41414518D01*
X151718347Y-41414518D01*
X151726276Y-40027000D01*
X153539458Y-40027000D01*
X153521323Y-40057718D01*
X153521323Y-40057718D01*
G37*
X153521323Y-40057718D02*
X155194000Y-41730395D01*
X156866677Y-40057718D01*
X156848542Y-40027000D01*
X158451772Y-40027000D01*
X158215391Y-40074019D01*
X157762172Y-40376851D01*
X157527281Y-40728389D01*
X157413730Y-40454252D01*
X157046282Y-40237323D01*
X155373605Y-41910000D01*
X157046282Y-43582677D01*
X157413730Y-43365748D01*
X157525568Y-43089047D01*
X157762172Y-43443149D01*
X158215391Y-43745981D01*
X158750000Y-43852321D01*
X159284609Y-43745981D01*
X159737828Y-43443149D01*
X160020000Y-43020850D01*
X160302172Y-43443149D01*
X160755391Y-43745981D01*
X161290000Y-43852321D01*
X161824609Y-43745981D01*
X162277828Y-43443149D01*
X162560000Y-43020850D01*
X162842172Y-43443149D01*
X163295391Y-43745981D01*
X163830000Y-43852321D01*
X164364609Y-43745981D01*
X164817828Y-43443149D01*
X165109330Y-43006887D01*
X165127941Y-43069941D01*
X165471974Y-43495630D01*
X165952723Y-43757260D01*
X166026930Y-43772220D01*
X166243000Y-43649720D01*
X166243000Y-42037000D01*
X166223000Y-42037000D01*
X166223000Y-41783000D01*
X166243000Y-41783000D01*
X166243000Y-41763000D01*
X166497000Y-41763000D01*
X166497000Y-41783000D01*
X166517000Y-41783000D01*
X166517000Y-42037000D01*
X166497000Y-42037000D01*
X166497000Y-43649720D01*
X166713070Y-43772220D01*
X166787277Y-43757260D01*
X167268026Y-43495630D01*
X167612059Y-43069941D01*
X167630670Y-43006887D01*
X167922172Y-43443149D01*
X168375391Y-43745981D01*
X168910000Y-43852321D01*
X169444609Y-43745981D01*
X169897828Y-43443149D01*
X170180000Y-43020850D01*
X170462172Y-43443149D01*
X170915391Y-43745981D01*
X171450000Y-43852321D01*
X171984609Y-43745981D01*
X172437828Y-43443149D01*
X172720000Y-43020850D01*
X173002172Y-43443149D01*
X173455391Y-43745981D01*
X173990000Y-43852321D01*
X174524609Y-43745981D01*
X174977828Y-43443149D01*
X175260000Y-43020850D01*
X175542172Y-43443149D01*
X175995391Y-43745981D01*
X176530000Y-43852321D01*
X177064609Y-43745981D01*
X177517828Y-43443149D01*
X177800000Y-43020850D01*
X178082172Y-43443149D01*
X178535391Y-43745981D01*
X179070000Y-43852321D01*
X179604609Y-43745981D01*
X180057828Y-43443149D01*
X180340000Y-43020850D01*
X180622172Y-43443149D01*
X180850000Y-43595379D01*
X180850000Y-45720000D01*
X180907852Y-46010839D01*
X181072599Y-46257401D01*
X185517599Y-50702401D01*
X185764160Y-50867148D01*
X186055000Y-50925000D01*
X205771354Y-50925000D01*
X205792757Y-50976800D01*
X206196077Y-51380824D01*
X206723309Y-51599750D01*
X207294187Y-51600248D01*
X207821800Y-51382243D01*
X208225824Y-50978923D01*
X208444750Y-50451691D01*
X208445248Y-49880813D01*
X208227243Y-49353200D01*
X207823923Y-48949176D01*
X207296691Y-48730250D01*
X206725813Y-48729752D01*
X206198200Y-48947757D01*
X205794176Y-49351077D01*
X205771785Y-49405000D01*
X186369802Y-49405000D01*
X182370000Y-45405198D01*
X182370000Y-43595379D01*
X182597828Y-43443149D01*
X182900660Y-42989930D01*
X183007000Y-42455321D01*
X183007000Y-41364679D01*
X182900660Y-40830070D01*
X182597828Y-40376851D01*
X182144609Y-40074019D01*
X181908228Y-40027000D01*
X185375772Y-40027000D01*
X185139391Y-40074019D01*
X184686172Y-40376851D01*
X184383340Y-40830070D01*
X184277000Y-41364679D01*
X184277000Y-42455321D01*
X184383340Y-42989930D01*
X184686172Y-43443149D01*
X185139391Y-43745981D01*
X185674000Y-43852321D01*
X186208609Y-43745981D01*
X186661828Y-43443149D01*
X186944000Y-43020850D01*
X187226172Y-43443149D01*
X187679391Y-43745981D01*
X188214000Y-43852321D01*
X188748609Y-43745981D01*
X189201828Y-43443149D01*
X189484000Y-43020850D01*
X189766172Y-43443149D01*
X190219391Y-43745981D01*
X190754000Y-43852321D01*
X191288609Y-43745981D01*
X191741828Y-43443149D01*
X192024000Y-43020850D01*
X192306172Y-43443149D01*
X192759391Y-43745981D01*
X193294000Y-43852321D01*
X193828609Y-43745981D01*
X194281828Y-43443149D01*
X194564000Y-43020850D01*
X194846172Y-43443149D01*
X195299391Y-43745981D01*
X195834000Y-43852321D01*
X196368609Y-43745981D01*
X196821828Y-43443149D01*
X197104000Y-43020850D01*
X197386172Y-43443149D01*
X197839391Y-43745981D01*
X198374000Y-43852321D01*
X198908609Y-43745981D01*
X199361828Y-43443149D01*
X199644000Y-43020850D01*
X199926172Y-43443149D01*
X200379391Y-43745981D01*
X200914000Y-43852321D01*
X201448609Y-43745981D01*
X201901828Y-43443149D01*
X202184000Y-43020850D01*
X202466172Y-43443149D01*
X202919391Y-43745981D01*
X203454000Y-43852321D01*
X203988609Y-43745981D01*
X204441828Y-43443149D01*
X204744660Y-42989930D01*
X204851000Y-42455321D01*
X204851000Y-41364679D01*
X204744660Y-40830070D01*
X204441828Y-40376851D01*
X203988609Y-40074019D01*
X203752228Y-40027000D01*
X208235772Y-40027000D01*
X207999391Y-40074019D01*
X207546172Y-40376851D01*
X207243340Y-40830070D01*
X207137000Y-41364679D01*
X207137000Y-42455321D01*
X207243340Y-42989930D01*
X207546172Y-43443149D01*
X207774000Y-43595379D01*
X207774000Y-45339000D01*
X207831852Y-45629839D01*
X207996599Y-45876401D01*
X209425000Y-47304802D01*
X209425000Y-50800000D01*
X209482852Y-51090839D01*
X209647599Y-51337401D01*
X215795106Y-57484908D01*
X215714833Y-57484838D01*
X215371057Y-57626883D01*
X215107808Y-57889673D01*
X214965162Y-58233201D01*
X214964838Y-58605167D01*
X215106883Y-58948943D01*
X215140000Y-58982118D01*
X215140000Y-64770000D01*
X215197852Y-65060839D01*
X215362599Y-65307401D01*
X218947975Y-68892777D01*
X218947758Y-69141661D01*
X219159990Y-69655303D01*
X219552630Y-70048629D01*
X220065900Y-70261757D01*
X220621661Y-70262242D01*
X221135303Y-70050010D01*
X221528629Y-69657370D01*
X221741757Y-69144100D01*
X221742242Y-68588339D01*
X221530010Y-68074697D01*
X221137370Y-67681371D01*
X220977772Y-67615100D01*
X221135303Y-67550010D01*
X221528629Y-67157370D01*
X221564765Y-67070345D01*
X221580839Y-67067148D01*
X221827401Y-66902401D01*
X223422401Y-65307401D01*
X223587148Y-65060839D01*
X223645000Y-64770000D01*
X223645000Y-46355000D01*
X223587148Y-46064161D01*
X223422401Y-45817599D01*
X221994000Y-44389198D01*
X221994000Y-43595379D01*
X222221828Y-43443149D01*
X222504000Y-43020850D01*
X222786172Y-43443149D01*
X223239391Y-43745981D01*
X223774000Y-43852321D01*
X224308609Y-43745981D01*
X224761828Y-43443149D01*
X225044000Y-43020850D01*
X225326172Y-43443149D01*
X225779391Y-43745981D01*
X226314000Y-43852321D01*
X226766658Y-43762282D01*
X228451323Y-43762282D01*
X228668252Y-44129730D01*
X229628518Y-44517853D01*
X230664216Y-44508955D01*
X231579748Y-44129730D01*
X231796677Y-43762282D01*
X230124000Y-42089605D01*
X228451323Y-43762282D01*
X226766658Y-43762282D01*
X226848609Y-43745981D01*
X227301828Y-43443149D01*
X227604660Y-42989930D01*
X227651358Y-42755163D01*
X227904270Y-43365748D01*
X228271718Y-43582677D01*
X229944395Y-41910000D01*
X230303605Y-41910000D01*
X231976282Y-43582677D01*
X232343730Y-43365748D01*
X232680090Y-42533551D01*
X232748990Y-42700303D01*
X233141630Y-43093629D01*
X233349512Y-43179949D01*
X233143697Y-43264990D01*
X232750371Y-43657630D01*
X232537243Y-44170900D01*
X232536758Y-44726661D01*
X232748990Y-45240303D01*
X233141630Y-45633629D01*
X233349512Y-45719949D01*
X233143697Y-45804990D01*
X232750371Y-46197630D01*
X232537243Y-46710900D01*
X232536758Y-47266661D01*
X232748990Y-47780303D01*
X233141630Y-48173629D01*
X233349512Y-48259949D01*
X233143697Y-48344990D01*
X232750371Y-48737630D01*
X232537243Y-49250900D01*
X232536758Y-49806661D01*
X232748990Y-50320303D01*
X233141630Y-50713629D01*
X233349512Y-50799949D01*
X233143697Y-50884990D01*
X232750371Y-51277630D01*
X232537243Y-51790900D01*
X232536758Y-52346661D01*
X232748990Y-52860303D01*
X233141630Y-53253629D01*
X233349512Y-53339949D01*
X233143697Y-53424990D01*
X232750371Y-53817630D01*
X232537243Y-54330900D01*
X232536758Y-54886661D01*
X232748990Y-55400303D01*
X233141630Y-55793629D01*
X233349512Y-55879949D01*
X233143697Y-55964990D01*
X232750371Y-56357630D01*
X232537243Y-56870900D01*
X232536758Y-57426661D01*
X232748990Y-57940303D01*
X233141630Y-58333629D01*
X233349512Y-58419949D01*
X233143697Y-58504990D01*
X232750371Y-58897630D01*
X232537243Y-59410900D01*
X232536758Y-59966661D01*
X232748990Y-60480303D01*
X233141630Y-60873629D01*
X233349512Y-60959949D01*
X233143697Y-61044990D01*
X232750371Y-61437630D01*
X232537243Y-61950900D01*
X232536758Y-62506661D01*
X232748990Y-63020303D01*
X233141630Y-63413629D01*
X233349512Y-63499949D01*
X233143697Y-63584990D01*
X232750371Y-63977630D01*
X232537243Y-64490900D01*
X232536758Y-65046661D01*
X232748990Y-65560303D01*
X233141630Y-65953629D01*
X233349512Y-66039949D01*
X233143697Y-66124990D01*
X232750371Y-66517630D01*
X232537243Y-67030900D01*
X232536758Y-67586661D01*
X232748990Y-68100303D01*
X233141630Y-68493629D01*
X233349512Y-68579949D01*
X233143697Y-68664990D01*
X232750371Y-69057630D01*
X232537243Y-69570900D01*
X232536758Y-70126661D01*
X232748990Y-70640303D01*
X233141630Y-71033629D01*
X233349512Y-71119949D01*
X233143697Y-71204990D01*
X232750371Y-71597630D01*
X232537243Y-72110900D01*
X232536758Y-72666661D01*
X232748990Y-73180303D01*
X233141630Y-73573629D01*
X233349512Y-73659949D01*
X233143697Y-73744990D01*
X232750371Y-74137630D01*
X232537243Y-74650900D01*
X232536758Y-75206661D01*
X232748990Y-75720303D01*
X233141630Y-76113629D01*
X233349512Y-76199949D01*
X233143697Y-76284990D01*
X232750371Y-76677630D01*
X232537243Y-77190900D01*
X232536758Y-77746661D01*
X232748990Y-78260303D01*
X233141630Y-78653629D01*
X233349512Y-78739949D01*
X233143697Y-78824990D01*
X232750371Y-79217630D01*
X232537243Y-79730900D01*
X232536758Y-80286661D01*
X232748990Y-80800303D01*
X233141630Y-81193629D01*
X233349512Y-81279949D01*
X233143697Y-81364990D01*
X232750371Y-81757630D01*
X232537243Y-82270900D01*
X232536758Y-82826661D01*
X232748990Y-83340303D01*
X233141630Y-83733629D01*
X233333727Y-83813395D01*
X233202857Y-83867603D01*
X233133392Y-84109787D01*
X233934000Y-84910395D01*
X234734608Y-84109787D01*
X234665143Y-83867603D01*
X234524682Y-83817491D01*
X234724303Y-83735010D01*
X235117629Y-83342370D01*
X235203949Y-83134488D01*
X235288990Y-83340303D01*
X235681630Y-83733629D01*
X235873727Y-83813395D01*
X235742857Y-83867603D01*
X235673392Y-84109787D01*
X236474000Y-84910395D01*
X237274608Y-84109787D01*
X237205143Y-83867603D01*
X237064682Y-83817491D01*
X237264303Y-83735010D01*
X237657629Y-83342370D01*
X237870757Y-82829100D01*
X237871242Y-82273339D01*
X237659010Y-81759697D01*
X237266370Y-81366371D01*
X237058488Y-81280051D01*
X237264303Y-81195010D01*
X237657629Y-80802370D01*
X237870757Y-80289100D01*
X237871242Y-79733339D01*
X237659010Y-79219697D01*
X237266370Y-78826371D01*
X237058488Y-78740051D01*
X237264303Y-78655010D01*
X237657629Y-78262370D01*
X237870757Y-77749100D01*
X237871242Y-77193339D01*
X237659010Y-76679697D01*
X237266370Y-76286371D01*
X237058488Y-76200051D01*
X237264303Y-76115010D01*
X237657629Y-75722370D01*
X237870757Y-75209100D01*
X237871242Y-74653339D01*
X237659010Y-74139697D01*
X237266370Y-73746371D01*
X237058488Y-73660051D01*
X237264303Y-73575010D01*
X237657629Y-73182370D01*
X237870757Y-72669100D01*
X237871242Y-72113339D01*
X237659010Y-71599697D01*
X237266370Y-71206371D01*
X237058488Y-71120051D01*
X237264303Y-71035010D01*
X237657629Y-70642370D01*
X237870757Y-70129100D01*
X237871242Y-69573339D01*
X237659010Y-69059697D01*
X237266370Y-68666371D01*
X237058488Y-68580051D01*
X237264303Y-68495010D01*
X237657629Y-68102370D01*
X237870757Y-67589100D01*
X237871242Y-67033339D01*
X237659010Y-66519697D01*
X237266370Y-66126371D01*
X237058488Y-66040051D01*
X237264303Y-65955010D01*
X237657629Y-65562370D01*
X237870757Y-65049100D01*
X237871242Y-64493339D01*
X237659010Y-63979697D01*
X237266370Y-63586371D01*
X237058488Y-63500051D01*
X237264303Y-63415010D01*
X237657629Y-63022370D01*
X237870757Y-62509100D01*
X237871242Y-61953339D01*
X237659010Y-61439697D01*
X237266370Y-61046371D01*
X237058488Y-60960051D01*
X237264303Y-60875010D01*
X237657629Y-60482370D01*
X237870757Y-59969100D01*
X237871242Y-59413339D01*
X237659010Y-58899697D01*
X237266370Y-58506371D01*
X237058488Y-58420051D01*
X237264303Y-58335010D01*
X237657629Y-57942370D01*
X237870757Y-57429100D01*
X237871242Y-56873339D01*
X237659010Y-56359697D01*
X237266370Y-55966371D01*
X237058488Y-55880051D01*
X237264303Y-55795010D01*
X237657629Y-55402370D01*
X237870757Y-54889100D01*
X237871242Y-54333339D01*
X237659010Y-53819697D01*
X237266370Y-53426371D01*
X237058488Y-53340051D01*
X237264303Y-53255010D01*
X237657629Y-52862370D01*
X237870757Y-52349100D01*
X237871242Y-51793339D01*
X237659010Y-51279697D01*
X237266370Y-50886371D01*
X237058488Y-50800051D01*
X237264303Y-50715010D01*
X237657629Y-50322370D01*
X237870757Y-49809100D01*
X237871242Y-49253339D01*
X237659010Y-48739697D01*
X237266370Y-48346371D01*
X237058488Y-48260051D01*
X237264303Y-48175010D01*
X237657629Y-47782370D01*
X237870757Y-47269100D01*
X237871242Y-46713339D01*
X237659010Y-46199697D01*
X237266370Y-45806371D01*
X237058488Y-45720051D01*
X237264303Y-45635010D01*
X237657629Y-45242370D01*
X237870757Y-44729100D01*
X237871242Y-44173339D01*
X237659010Y-43659697D01*
X237266370Y-43266371D01*
X237058488Y-43180051D01*
X237264303Y-43095010D01*
X237657629Y-42702370D01*
X237870757Y-42189100D01*
X237871242Y-41633339D01*
X237659010Y-41119697D01*
X237266370Y-40726371D01*
X236753100Y-40513243D01*
X236197339Y-40512758D01*
X235683697Y-40724990D01*
X235290371Y-41117630D01*
X235204051Y-41325512D01*
X235119010Y-41119697D01*
X234726370Y-40726371D01*
X234213100Y-40513243D01*
X233657339Y-40512758D01*
X233143697Y-40724990D01*
X232750371Y-41117630D01*
X232684359Y-41276605D01*
X232343730Y-40454252D01*
X231976282Y-40237323D01*
X230303605Y-41910000D01*
X229944395Y-41910000D01*
X228271718Y-40237323D01*
X227904270Y-40454252D01*
X227653378Y-41074992D01*
X227604660Y-40830070D01*
X227301828Y-40376851D01*
X226848609Y-40074019D01*
X226612228Y-40027000D01*
X228469458Y-40027000D01*
X228451323Y-40057718D01*
X230124000Y-41730395D01*
X231796677Y-40057718D01*
X231778542Y-40027000D01*
X237243820Y-40027000D01*
X238173000Y-41049098D01*
X238173000Y-52400000D01*
X238183006Y-52449410D01*
X238211908Y-52491481D01*
X240872832Y-55053852D01*
X240773159Y-87048804D01*
X238839605Y-89066426D01*
X238693730Y-88714252D01*
X238326282Y-88497323D01*
X236653605Y-90170000D01*
X238326282Y-91842677D01*
X238390609Y-91804701D01*
X238377450Y-92173140D01*
X238057399Y-92173507D01*
X238146677Y-92022282D01*
X236474000Y-90349605D01*
X234801323Y-92022282D01*
X234892741Y-92177132D01*
X155451537Y-92268130D01*
X155596677Y-92022282D01*
X153924000Y-90349605D01*
X152251323Y-92022282D01*
X152398528Y-92271627D01*
X151427730Y-92272739D01*
X151435140Y-90976009D01*
X151704270Y-91625748D01*
X152071718Y-91842677D01*
X153744395Y-90170000D01*
X154103605Y-90170000D01*
X155776282Y-91842677D01*
X156143730Y-91625748D01*
X156531853Y-90665482D01*
X156522955Y-89629784D01*
X156520841Y-89624679D01*
X166497000Y-89624679D01*
X166497000Y-90715321D01*
X166603340Y-91249930D01*
X166906172Y-91703149D01*
X167359391Y-92005981D01*
X167894000Y-92112321D01*
X168428609Y-92005981D01*
X168881828Y-91703149D01*
X169164000Y-91280850D01*
X169446172Y-91703149D01*
X169899391Y-92005981D01*
X170434000Y-92112321D01*
X170968609Y-92005981D01*
X171421828Y-91703149D01*
X171704000Y-91280850D01*
X171986172Y-91703149D01*
X172439391Y-92005981D01*
X172974000Y-92112321D01*
X173508609Y-92005981D01*
X173961828Y-91703149D01*
X174244000Y-91280850D01*
X174526172Y-91703149D01*
X174979391Y-92005981D01*
X175514000Y-92112321D01*
X176048609Y-92005981D01*
X176501828Y-91703149D01*
X176784000Y-91280850D01*
X177066172Y-91703149D01*
X177519391Y-92005981D01*
X178054000Y-92112321D01*
X178588609Y-92005981D01*
X179041828Y-91703149D01*
X179333330Y-91266887D01*
X179351941Y-91329941D01*
X179695974Y-91755630D01*
X180176723Y-92017260D01*
X180250930Y-92032220D01*
X180467000Y-91909720D01*
X180467000Y-90297000D01*
X180721000Y-90297000D01*
X180721000Y-91909720D01*
X180937070Y-92032220D01*
X181011277Y-92017260D01*
X181492026Y-91755630D01*
X181836059Y-91329941D01*
X181864000Y-91235277D01*
X181891941Y-91329941D01*
X182235974Y-91755630D01*
X182716723Y-92017260D01*
X182790930Y-92032220D01*
X183007000Y-91909720D01*
X183007000Y-90297000D01*
X180721000Y-90297000D01*
X180467000Y-90297000D01*
X180447000Y-90297000D01*
X180447000Y-90043000D01*
X180467000Y-90043000D01*
X180467000Y-88430280D01*
X180721000Y-88430280D01*
X180721000Y-90043000D01*
X183007000Y-90043000D01*
X183007000Y-88430280D01*
X183261000Y-88430280D01*
X183261000Y-90043000D01*
X183281000Y-90043000D01*
X183281000Y-90297000D01*
X183261000Y-90297000D01*
X183261000Y-91909720D01*
X183477070Y-92032220D01*
X183551277Y-92017260D01*
X184032026Y-91755630D01*
X184376059Y-91329941D01*
X184394670Y-91266887D01*
X184686172Y-91703149D01*
X185139391Y-92005981D01*
X185674000Y-92112321D01*
X186208609Y-92005981D01*
X186661828Y-91703149D01*
X186964660Y-91249930D01*
X187071000Y-90715321D01*
X187071000Y-89624679D01*
X189357000Y-89624679D01*
X189357000Y-90715321D01*
X189463340Y-91249930D01*
X189766172Y-91703149D01*
X190219391Y-92005981D01*
X190754000Y-92112321D01*
X191288609Y-92005981D01*
X191741828Y-91703149D01*
X192024000Y-91280850D01*
X192306172Y-91703149D01*
X192759391Y-92005981D01*
X193294000Y-92112321D01*
X193828609Y-92005981D01*
X194281828Y-91703149D01*
X194564000Y-91280850D01*
X194846172Y-91703149D01*
X195299391Y-92005981D01*
X195834000Y-92112321D01*
X196368609Y-92005981D01*
X196821828Y-91703149D01*
X197104000Y-91280850D01*
X197386172Y-91703149D01*
X197839391Y-92005981D01*
X198374000Y-92112321D01*
X198908609Y-92005981D01*
X199361828Y-91703149D01*
X199644000Y-91280850D01*
X199926172Y-91703149D01*
X200379391Y-92005981D01*
X200914000Y-92112321D01*
X201448609Y-92005981D01*
X201901828Y-91703149D01*
X202184000Y-91280850D01*
X202466172Y-91703149D01*
X202919391Y-92005981D01*
X203454000Y-92112321D01*
X203988609Y-92005981D01*
X204441828Y-91703149D01*
X204724000Y-91280850D01*
X205006172Y-91703149D01*
X205459391Y-92005981D01*
X205994000Y-92112321D01*
X206528609Y-92005981D01*
X206981828Y-91703149D01*
X207264000Y-91280850D01*
X207546172Y-91703149D01*
X207999391Y-92005981D01*
X208534000Y-92112321D01*
X209068609Y-92005981D01*
X209521828Y-91703149D01*
X209824660Y-91249930D01*
X209931000Y-90715321D01*
X209931000Y-89624679D01*
X212217000Y-89624679D01*
X212217000Y-90715321D01*
X212323340Y-91249930D01*
X212626172Y-91703149D01*
X213079391Y-92005981D01*
X213614000Y-92112321D01*
X214148609Y-92005981D01*
X214601828Y-91703149D01*
X214884000Y-91280850D01*
X215166172Y-91703149D01*
X215619391Y-92005981D01*
X216154000Y-92112321D01*
X216688609Y-92005981D01*
X217141828Y-91703149D01*
X217424000Y-91280850D01*
X217706172Y-91703149D01*
X218159391Y-92005981D01*
X218694000Y-92112321D01*
X219228609Y-92005981D01*
X219681828Y-91703149D01*
X219964000Y-91280850D01*
X220246172Y-91703149D01*
X220699391Y-92005981D01*
X221234000Y-92112321D01*
X221768609Y-92005981D01*
X222221828Y-91703149D01*
X222504000Y-91280850D01*
X222786172Y-91703149D01*
X223239391Y-92005981D01*
X223774000Y-92112321D01*
X224308609Y-92005981D01*
X224761828Y-91703149D01*
X225044000Y-91280850D01*
X225326172Y-91703149D01*
X225779391Y-92005981D01*
X226314000Y-92112321D01*
X226848609Y-92005981D01*
X227301828Y-91703149D01*
X227584000Y-91280850D01*
X227866172Y-91703149D01*
X228319391Y-92005981D01*
X228854000Y-92112321D01*
X229388609Y-92005981D01*
X229841828Y-91703149D01*
X230124000Y-91280850D01*
X230406172Y-91703149D01*
X230859391Y-92005981D01*
X231394000Y-92112321D01*
X231928609Y-92005981D01*
X232381828Y-91703149D01*
X232684660Y-91249930D01*
X232791000Y-90715321D01*
X232791000Y-89674518D01*
X233866147Y-89674518D01*
X233875045Y-90710216D01*
X234254270Y-91625748D01*
X234621718Y-91842677D01*
X236294395Y-90170000D01*
X234621718Y-88497323D01*
X234254270Y-88714252D01*
X233866147Y-89674518D01*
X232791000Y-89674518D01*
X232791000Y-89624679D01*
X232684660Y-89090070D01*
X232381828Y-88636851D01*
X231928609Y-88334019D01*
X231846659Y-88317718D01*
X234801323Y-88317718D01*
X236474000Y-89990395D01*
X238146677Y-88317718D01*
X237929748Y-87950270D01*
X236969482Y-87562147D01*
X235933784Y-87571045D01*
X235018252Y-87950270D01*
X234801323Y-88317718D01*
X231846659Y-88317718D01*
X231394000Y-88227679D01*
X230859391Y-88334019D01*
X230406172Y-88636851D01*
X230124000Y-89059150D01*
X229841828Y-88636851D01*
X229388609Y-88334019D01*
X228854000Y-88227679D01*
X228319391Y-88334019D01*
X227866172Y-88636851D01*
X227584000Y-89059150D01*
X227301828Y-88636851D01*
X226848609Y-88334019D01*
X226314000Y-88227679D01*
X225779391Y-88334019D01*
X225326172Y-88636851D01*
X225044000Y-89059150D01*
X224761828Y-88636851D01*
X224308609Y-88334019D01*
X223774000Y-88227679D01*
X223239391Y-88334019D01*
X222786172Y-88636851D01*
X222504000Y-89059150D01*
X222221828Y-88636851D01*
X221768609Y-88334019D01*
X221234000Y-88227679D01*
X220699391Y-88334019D01*
X220246172Y-88636851D01*
X219964000Y-89059150D01*
X219681828Y-88636851D01*
X219228609Y-88334019D01*
X218694000Y-88227679D01*
X218159391Y-88334019D01*
X217706172Y-88636851D01*
X217424000Y-89059150D01*
X217141828Y-88636851D01*
X216688609Y-88334019D01*
X216154000Y-88227679D01*
X215619391Y-88334019D01*
X215166172Y-88636851D01*
X214884000Y-89059150D01*
X214601828Y-88636851D01*
X214148609Y-88334019D01*
X213614000Y-88227679D01*
X213079391Y-88334019D01*
X212626172Y-88636851D01*
X212323340Y-89090070D01*
X212217000Y-89624679D01*
X209931000Y-89624679D01*
X209824660Y-89090070D01*
X209521828Y-88636851D01*
X209068609Y-88334019D01*
X208534000Y-88227679D01*
X207999391Y-88334019D01*
X207546172Y-88636851D01*
X207264000Y-89059150D01*
X206981828Y-88636851D01*
X206528609Y-88334019D01*
X205994000Y-88227679D01*
X205459391Y-88334019D01*
X205006172Y-88636851D01*
X204724000Y-89059150D01*
X204441828Y-88636851D01*
X203988609Y-88334019D01*
X203454000Y-88227679D01*
X202919391Y-88334019D01*
X202466172Y-88636851D01*
X202184000Y-89059150D01*
X201901828Y-88636851D01*
X201448609Y-88334019D01*
X200914000Y-88227679D01*
X200379391Y-88334019D01*
X199926172Y-88636851D01*
X199644000Y-89059150D01*
X199361828Y-88636851D01*
X198908609Y-88334019D01*
X198374000Y-88227679D01*
X197839391Y-88334019D01*
X197386172Y-88636851D01*
X197104000Y-89059150D01*
X196821828Y-88636851D01*
X196368609Y-88334019D01*
X195834000Y-88227679D01*
X195299391Y-88334019D01*
X194846172Y-88636851D01*
X194564000Y-89059150D01*
X194281828Y-88636851D01*
X193828609Y-88334019D01*
X193294000Y-88227679D01*
X192759391Y-88334019D01*
X192306172Y-88636851D01*
X192024000Y-89059150D01*
X191741828Y-88636851D01*
X191288609Y-88334019D01*
X190754000Y-88227679D01*
X190219391Y-88334019D01*
X189766172Y-88636851D01*
X189463340Y-89090070D01*
X189357000Y-89624679D01*
X187071000Y-89624679D01*
X186964660Y-89090070D01*
X186661828Y-88636851D01*
X186208609Y-88334019D01*
X185674000Y-88227679D01*
X185139391Y-88334019D01*
X184686172Y-88636851D01*
X184394670Y-89073113D01*
X184376059Y-89010059D01*
X184032026Y-88584370D01*
X183551277Y-88322740D01*
X183477070Y-88307780D01*
X183261000Y-88430280D01*
X183007000Y-88430280D01*
X182790930Y-88307780D01*
X182716723Y-88322740D01*
X182235974Y-88584370D01*
X181891941Y-89010059D01*
X181864000Y-89104723D01*
X181836059Y-89010059D01*
X181492026Y-88584370D01*
X181011277Y-88322740D01*
X180937070Y-88307780D01*
X180721000Y-88430280D01*
X180467000Y-88430280D01*
X180250930Y-88307780D01*
X180176723Y-88322740D01*
X179695974Y-88584370D01*
X179351941Y-89010059D01*
X179333330Y-89073113D01*
X179324000Y-89059150D01*
X179324000Y-88537052D01*
X180866051Y-86995000D01*
X183514995Y-86995000D01*
X183515000Y-86995001D01*
X184001008Y-86898327D01*
X184413026Y-86623026D01*
X184965839Y-86070213D01*
X233133392Y-86070213D01*
X233202857Y-86312397D01*
X233726302Y-86499144D01*
X234281368Y-86471362D01*
X234665143Y-86312397D01*
X234734608Y-86070213D01*
X235673392Y-86070213D01*
X235742857Y-86312397D01*
X236266302Y-86499144D01*
X236821368Y-86471362D01*
X237205143Y-86312397D01*
X237274608Y-86070213D01*
X236474000Y-85269605D01*
X235673392Y-86070213D01*
X234734608Y-86070213D01*
X233934000Y-85269605D01*
X233133392Y-86070213D01*
X184965839Y-86070213D01*
X186153750Y-84882302D01*
X232524856Y-84882302D01*
X232552638Y-85437368D01*
X232711603Y-85821143D01*
X232953787Y-85890608D01*
X233754395Y-85090000D01*
X234113605Y-85090000D01*
X234914213Y-85890608D01*
X235156397Y-85821143D01*
X235200453Y-85697656D01*
X235251603Y-85821143D01*
X235493787Y-85890608D01*
X236294395Y-85090000D01*
X236653605Y-85090000D01*
X237454213Y-85890608D01*
X237696397Y-85821143D01*
X237883144Y-85297698D01*
X237855362Y-84742632D01*
X237696397Y-84358857D01*
X237454213Y-84289392D01*
X236653605Y-85090000D01*
X236294395Y-85090000D01*
X235493787Y-84289392D01*
X235251603Y-84358857D01*
X235207547Y-84482344D01*
X235156397Y-84358857D01*
X234914213Y-84289392D01*
X234113605Y-85090000D01*
X233754395Y-85090000D01*
X232953787Y-84289392D01*
X232711603Y-84358857D01*
X232524856Y-84882302D01*
X186153750Y-84882302D01*
X187588026Y-83448026D01*
X187863327Y-83036008D01*
X187960001Y-82550000D01*
X187863327Y-82063992D01*
X187588026Y-81651974D01*
X187176008Y-81376673D01*
X186690000Y-81279999D01*
X186203992Y-81376673D01*
X185791974Y-81651974D01*
X182988948Y-84455000D01*
X180340000Y-84455000D01*
X180203999Y-84482052D01*
X181390608Y-83295443D01*
X181524151Y-83268880D01*
X181989698Y-82957811D01*
X182300767Y-82492264D01*
X182410000Y-81943113D01*
X182410000Y-81886887D01*
X182300767Y-81337736D01*
X182245000Y-81254275D01*
X182245000Y-80645000D01*
X182148327Y-80158992D01*
X181873026Y-79746974D01*
X179237713Y-77111661D01*
X218947758Y-77111661D01*
X219159990Y-77625303D01*
X219552630Y-78018629D01*
X219712228Y-78084900D01*
X219554697Y-78149990D01*
X219161371Y-78542630D01*
X218948243Y-79055900D01*
X218947758Y-79611661D01*
X219159990Y-80125303D01*
X219552630Y-80518629D01*
X220065900Y-80731757D01*
X220621661Y-80732242D01*
X221135303Y-80520010D01*
X221528629Y-80127370D01*
X221741757Y-79614100D01*
X221742242Y-79058339D01*
X221530010Y-78544697D01*
X221137370Y-78151371D01*
X220977772Y-78085100D01*
X221135303Y-78020010D01*
X221528629Y-77627370D01*
X221741757Y-77114100D01*
X221742242Y-76558339D01*
X221530010Y-76044697D01*
X221217858Y-75732000D01*
X221233310Y-75732000D01*
X221466699Y-75635327D01*
X221645327Y-75456698D01*
X221742000Y-75223309D01*
X221742000Y-74620750D01*
X221583250Y-74462000D01*
X220472000Y-74462000D01*
X220472000Y-74482000D01*
X220218000Y-74482000D01*
X220218000Y-74462000D01*
X219106750Y-74462000D01*
X218948000Y-74620750D01*
X218948000Y-75223309D01*
X219044673Y-75456698D01*
X219223301Y-75635327D01*
X219456690Y-75732000D01*
X219472544Y-75732000D01*
X219161371Y-76042630D01*
X218948243Y-76555900D01*
X218947758Y-77111661D01*
X179237713Y-77111661D01*
X176705239Y-74579187D01*
X179539752Y-74579187D01*
X179757757Y-75106800D01*
X180161077Y-75510824D01*
X180688309Y-75729750D01*
X181259187Y-75730248D01*
X181786800Y-75512243D01*
X182190824Y-75108923D01*
X182409750Y-74581691D01*
X182410248Y-74010813D01*
X182192243Y-73483200D01*
X182155798Y-73446691D01*
X218948000Y-73446691D01*
X218948000Y-74049250D01*
X219106750Y-74208000D01*
X220218000Y-74208000D01*
X220218000Y-73096750D01*
X220472000Y-73096750D01*
X220472000Y-74208000D01*
X221583250Y-74208000D01*
X221742000Y-74049250D01*
X221742000Y-73446691D01*
X221645327Y-73213302D01*
X221466699Y-73034673D01*
X221233310Y-72938000D01*
X220630750Y-72938000D01*
X220472000Y-73096750D01*
X220218000Y-73096750D01*
X220059250Y-72938000D01*
X219456690Y-72938000D01*
X219223301Y-73034673D01*
X219044673Y-73213302D01*
X218948000Y-73446691D01*
X182155798Y-73446691D01*
X181788923Y-73079176D01*
X181261691Y-72860250D01*
X180690813Y-72859752D01*
X180163200Y-73077757D01*
X179759176Y-73481077D01*
X179540250Y-74008309D01*
X179539752Y-74579187D01*
X176705239Y-74579187D01*
X175523026Y-73396974D01*
X175111008Y-73121673D01*
X174625000Y-73024999D01*
X174138992Y-73121673D01*
X173726974Y-73396974D01*
X173451673Y-73808992D01*
X173354999Y-74295000D01*
X173451673Y-74781008D01*
X173726974Y-75193026D01*
X179705000Y-81171052D01*
X179705000Y-81254275D01*
X179649233Y-81337736D01*
X179622670Y-81471279D01*
X174615974Y-86477974D01*
X174340673Y-86889992D01*
X174243999Y-87376000D01*
X174244000Y-87376005D01*
X174244000Y-89059150D01*
X173961828Y-88636851D01*
X173508609Y-88334019D01*
X172974000Y-88227679D01*
X172439391Y-88334019D01*
X171986172Y-88636851D01*
X171704000Y-89059150D01*
X171421828Y-88636851D01*
X170968609Y-88334019D01*
X170434000Y-88227679D01*
X169899391Y-88334019D01*
X169446172Y-88636851D01*
X169164000Y-89059150D01*
X168881828Y-88636851D01*
X168428609Y-88334019D01*
X167894000Y-88227679D01*
X167359391Y-88334019D01*
X166906172Y-88636851D01*
X166603340Y-89090070D01*
X166497000Y-89624679D01*
X156520841Y-89624679D01*
X156143730Y-88714252D01*
X155776282Y-88497323D01*
X154103605Y-90170000D01*
X153744395Y-90170000D01*
X152071718Y-88497323D01*
X151704270Y-88714252D01*
X151444390Y-89357228D01*
X151450330Y-88317718D01*
X152251323Y-88317718D01*
X153924000Y-89990395D01*
X155596677Y-88317718D01*
X155379748Y-87950270D01*
X154419482Y-87562147D01*
X153383784Y-87571045D01*
X152468252Y-87950270D01*
X152251323Y-88317718D01*
X151450330Y-88317718D01*
X151487597Y-81795750D01*
X165608000Y-81795750D01*
X165608000Y-82398309D01*
X165704673Y-82631698D01*
X165883301Y-82810327D01*
X166116690Y-82907000D01*
X166719250Y-82907000D01*
X166878000Y-82748250D01*
X166878000Y-81637000D01*
X167132000Y-81637000D01*
X167132000Y-82748250D01*
X167290750Y-82907000D01*
X167893310Y-82907000D01*
X168126699Y-82810327D01*
X168305327Y-82631698D01*
X168402000Y-82398309D01*
X168402000Y-81795750D01*
X168243250Y-81637000D01*
X167132000Y-81637000D01*
X166878000Y-81637000D01*
X165766750Y-81637000D01*
X165608000Y-81795750D01*
X151487597Y-81795750D01*
X151530506Y-74286661D01*
X165607758Y-74286661D01*
X165819990Y-74800303D01*
X166212630Y-75193629D01*
X166372228Y-75259900D01*
X166214697Y-75324990D01*
X165821371Y-75717630D01*
X165608243Y-76230900D01*
X165607758Y-76786661D01*
X165819990Y-77300303D01*
X166212630Y-77693629D01*
X166372228Y-77759900D01*
X166214697Y-77824990D01*
X165821371Y-78217630D01*
X165608243Y-78730900D01*
X165607758Y-79286661D01*
X165819990Y-79800303D01*
X166132142Y-80113000D01*
X166116690Y-80113000D01*
X165883301Y-80209673D01*
X165704673Y-80388302D01*
X165608000Y-80621691D01*
X165608000Y-81224250D01*
X165766750Y-81383000D01*
X166878000Y-81383000D01*
X166878000Y-81363000D01*
X167132000Y-81363000D01*
X167132000Y-81383000D01*
X168243250Y-81383000D01*
X168402000Y-81224250D01*
X168402000Y-80621691D01*
X168305327Y-80388302D01*
X168126699Y-80209673D01*
X167893310Y-80113000D01*
X167877456Y-80113000D01*
X168188629Y-79802370D01*
X168401757Y-79289100D01*
X168402242Y-78733339D01*
X168388857Y-78700945D01*
X170717401Y-76372401D01*
X170882148Y-76125839D01*
X170940000Y-75835000D01*
X170940000Y-74609802D01*
X172224680Y-73325122D01*
X172270167Y-73325162D01*
X172613943Y-73183117D01*
X172877192Y-72920327D01*
X173019838Y-72576799D01*
X173020162Y-72204833D01*
X172952365Y-72040750D01*
X211825000Y-72040750D01*
X211825000Y-72781309D01*
X211921673Y-73014698D01*
X212100301Y-73193327D01*
X212333690Y-73290000D01*
X213074250Y-73290000D01*
X213233000Y-73131250D01*
X213233000Y-71882000D01*
X213487000Y-71882000D01*
X213487000Y-73131250D01*
X213645750Y-73290000D01*
X214386310Y-73290000D01*
X214619699Y-73193327D01*
X214798327Y-73014698D01*
X214895000Y-72781309D01*
X214895000Y-72040750D01*
X214736250Y-71882000D01*
X213487000Y-71882000D01*
X213233000Y-71882000D01*
X211983750Y-71882000D01*
X211825000Y-72040750D01*
X172952365Y-72040750D01*
X172878117Y-71861057D01*
X172615327Y-71597808D01*
X172271799Y-71455162D01*
X171899833Y-71454838D01*
X171556057Y-71596883D01*
X171292808Y-71859673D01*
X171150162Y-72203201D01*
X171150121Y-72250077D01*
X169642599Y-73757599D01*
X169477852Y-74004161D01*
X169420000Y-74295000D01*
X169420000Y-75520198D01*
X168401976Y-76538222D01*
X168402242Y-76233339D01*
X168190010Y-75719697D01*
X167797370Y-75326371D01*
X167637772Y-75260100D01*
X167795303Y-75195010D01*
X168188629Y-74802370D01*
X168401757Y-74289100D01*
X168402242Y-73733339D01*
X168190010Y-73219697D01*
X167797370Y-72826371D01*
X167284100Y-72613243D01*
X166728339Y-72612758D01*
X166214697Y-72824990D01*
X165821371Y-73217630D01*
X165608243Y-73730900D01*
X165607758Y-74286661D01*
X151530506Y-74286661D01*
X151554234Y-70134187D01*
X179539752Y-70134187D01*
X179757757Y-70661800D01*
X180161077Y-71065824D01*
X180688309Y-71284750D01*
X181259187Y-71285248D01*
X181786800Y-71067243D01*
X182190824Y-70663923D01*
X182409750Y-70136691D01*
X182410248Y-69565813D01*
X182192243Y-69038200D01*
X181788923Y-68634176D01*
X181261691Y-68415250D01*
X180690813Y-68414752D01*
X180163200Y-68632757D01*
X179759176Y-69036077D01*
X179540250Y-69563309D01*
X179539752Y-70134187D01*
X151554234Y-70134187D01*
X151561711Y-68825750D01*
X165608000Y-68825750D01*
X165608000Y-69428309D01*
X165704673Y-69661698D01*
X165883301Y-69840327D01*
X166116690Y-69937000D01*
X166719250Y-69937000D01*
X166878000Y-69778250D01*
X166878000Y-68667000D01*
X167132000Y-68667000D01*
X167132000Y-69778250D01*
X167290750Y-69937000D01*
X167893310Y-69937000D01*
X168126699Y-69840327D01*
X168305327Y-69661698D01*
X168402000Y-69428309D01*
X168402000Y-68825750D01*
X168243250Y-68667000D01*
X167132000Y-68667000D01*
X166878000Y-68667000D01*
X165766750Y-68667000D01*
X165608000Y-68825750D01*
X151561711Y-68825750D01*
X151621173Y-58420000D01*
X155574999Y-58420000D01*
X155575000Y-58420005D01*
X155575000Y-60959995D01*
X155574999Y-60960000D01*
X155671673Y-61446008D01*
X155946974Y-61858026D01*
X161026974Y-66938026D01*
X161438992Y-67213327D01*
X161925000Y-67310001D01*
X161925005Y-67310000D01*
X165812974Y-67310000D01*
X165704673Y-67418302D01*
X165608000Y-67651691D01*
X165608000Y-68254250D01*
X165766750Y-68413000D01*
X166878000Y-68413000D01*
X166878000Y-68393000D01*
X167132000Y-68393000D01*
X167132000Y-68413000D01*
X168243250Y-68413000D01*
X168402000Y-68254250D01*
X168402000Y-67651691D01*
X168305327Y-67418302D01*
X168197026Y-67310000D01*
X186690000Y-67310000D01*
X187176008Y-67213327D01*
X187588026Y-66938026D01*
X187863327Y-66526008D01*
X187960000Y-66040000D01*
X187863327Y-65553992D01*
X187588026Y-65141974D01*
X187176008Y-64866673D01*
X186690000Y-64770000D01*
X167686419Y-64770000D01*
X167795303Y-64725010D01*
X168188629Y-64332370D01*
X168401757Y-63819100D01*
X168402242Y-63263339D01*
X168190010Y-62749697D01*
X167797370Y-62356371D01*
X167425331Y-62201887D01*
X179540000Y-62201887D01*
X179540000Y-62258113D01*
X179649233Y-62807264D01*
X179960302Y-63272811D01*
X180425849Y-63583880D01*
X180975000Y-63693113D01*
X181524151Y-63583880D01*
X181989698Y-63272811D01*
X182300767Y-62807264D01*
X182410000Y-62258113D01*
X182410000Y-62201887D01*
X182300767Y-61652736D01*
X181989698Y-61187189D01*
X181524151Y-60876120D01*
X180975000Y-60766887D01*
X180425849Y-60876120D01*
X179960302Y-61187189D01*
X179649233Y-61652736D01*
X179540000Y-62201887D01*
X167425331Y-62201887D01*
X167284100Y-62143243D01*
X166728339Y-62142758D01*
X166214697Y-62354990D01*
X165821371Y-62747630D01*
X165608243Y-63260900D01*
X165607758Y-63816661D01*
X165819990Y-64330303D01*
X166212630Y-64723629D01*
X166324304Y-64770000D01*
X162451052Y-64770000D01*
X158115000Y-60433948D01*
X158115000Y-58946052D01*
X159030302Y-58030750D01*
X165608000Y-58030750D01*
X165608000Y-58633309D01*
X165704673Y-58866698D01*
X165883301Y-59045327D01*
X166116690Y-59142000D01*
X166719250Y-59142000D01*
X166878000Y-58983250D01*
X166878000Y-57872000D01*
X167132000Y-57872000D01*
X167132000Y-58983250D01*
X167290750Y-59142000D01*
X167893310Y-59142000D01*
X168126699Y-59045327D01*
X168305327Y-58866698D01*
X168402000Y-58633309D01*
X168402000Y-58030750D01*
X168243250Y-57872000D01*
X167132000Y-57872000D01*
X166878000Y-57872000D01*
X165766750Y-57872000D01*
X165608000Y-58030750D01*
X159030302Y-58030750D01*
X159304165Y-57756887D01*
X205575000Y-57756887D01*
X205575000Y-57813113D01*
X205684233Y-58362264D01*
X205995302Y-58827811D01*
X206250000Y-58997995D01*
X206250000Y-66675000D01*
X206307852Y-66965839D01*
X206472599Y-67212401D01*
X209012599Y-69752401D01*
X209259160Y-69917148D01*
X209307414Y-69926746D01*
X209550000Y-69975000D01*
X212013154Y-69975000D01*
X212057932Y-70083371D01*
X212235092Y-70260841D01*
X212100301Y-70316673D01*
X211921673Y-70495302D01*
X211825000Y-70728691D01*
X211825000Y-71469250D01*
X211983750Y-71628000D01*
X213233000Y-71628000D01*
X213233000Y-71608000D01*
X213487000Y-71608000D01*
X213487000Y-71628000D01*
X214736250Y-71628000D01*
X214895000Y-71469250D01*
X214895000Y-70728691D01*
X214798327Y-70495302D01*
X214619699Y-70316673D01*
X214485006Y-70260881D01*
X214660551Y-70085643D01*
X214894733Y-69521670D01*
X214895265Y-68911009D01*
X214662068Y-68346629D01*
X214230643Y-67914449D01*
X213666670Y-67680267D01*
X213056009Y-67679735D01*
X212491629Y-67912932D01*
X212059449Y-68344357D01*
X212013506Y-68455000D01*
X209864802Y-68455000D01*
X207770000Y-66360198D01*
X207770000Y-58997995D01*
X208024698Y-58827811D01*
X208335767Y-58362264D01*
X208445000Y-57813113D01*
X208445000Y-57756887D01*
X208335767Y-57207736D01*
X208024698Y-56742189D01*
X207559151Y-56431120D01*
X207010000Y-56321887D01*
X206460849Y-56431120D01*
X205995302Y-56742189D01*
X205684233Y-57207736D01*
X205575000Y-57756887D01*
X159304165Y-57756887D01*
X163046052Y-54015000D01*
X166323581Y-54015000D01*
X166214697Y-54059990D01*
X165821371Y-54452630D01*
X165608243Y-54965900D01*
X165607758Y-55521661D01*
X165819990Y-56035303D01*
X166132142Y-56348000D01*
X166116690Y-56348000D01*
X165883301Y-56444673D01*
X165704673Y-56623302D01*
X165608000Y-56856691D01*
X165608000Y-57459250D01*
X165766750Y-57618000D01*
X166878000Y-57618000D01*
X166878000Y-57598000D01*
X167132000Y-57598000D01*
X167132000Y-57618000D01*
X168243250Y-57618000D01*
X168402000Y-57459250D01*
X168402000Y-56856691D01*
X168305327Y-56623302D01*
X168126699Y-56444673D01*
X167893310Y-56348000D01*
X167877456Y-56348000D01*
X168188629Y-56037370D01*
X168202070Y-56005000D01*
X186690000Y-56005000D01*
X186980839Y-55947148D01*
X187227401Y-55782401D01*
X188099680Y-54910122D01*
X188145167Y-54910162D01*
X188488943Y-54768117D01*
X188752192Y-54505327D01*
X188894838Y-54161799D01*
X188895162Y-53789833D01*
X188753117Y-53446057D01*
X188490327Y-53182808D01*
X188146799Y-53040162D01*
X187774833Y-53039838D01*
X187431057Y-53181883D01*
X187167808Y-53444673D01*
X187025162Y-53788201D01*
X187025121Y-53835077D01*
X186375198Y-54485000D01*
X168202531Y-54485000D01*
X168190010Y-54454697D01*
X167797370Y-54061371D01*
X167637772Y-53995100D01*
X167795303Y-53930010D01*
X168188629Y-53537370D01*
X168401757Y-53024100D01*
X168402242Y-52468339D01*
X168190010Y-51954697D01*
X167797370Y-51561371D01*
X167284100Y-51348243D01*
X166728339Y-51347758D01*
X166420389Y-51475000D01*
X162520005Y-51475000D01*
X162520000Y-51474999D01*
X162033992Y-51571673D01*
X161621974Y-51846974D01*
X155946974Y-57521974D01*
X155671673Y-57933992D01*
X155574999Y-58420000D01*
X151621173Y-58420000D01*
X151704931Y-43762282D01*
X153521323Y-43762282D01*
X153738252Y-44129730D01*
X154698518Y-44517853D01*
X155734216Y-44508955D01*
X156649748Y-44129730D01*
X156866677Y-43762282D01*
X155194000Y-42089605D01*
X153521323Y-43762282D01*
X151704931Y-43762282D01*
X151718347Y-41414518D01*
X152586147Y-41414518D01*
X152595045Y-42450216D01*
X152974270Y-43365748D01*
X153341718Y-43582677D01*
X155014395Y-41910000D01*
X153341718Y-40237323D01*
X152974270Y-40454252D01*
X152586147Y-41414518D01*
X151718347Y-41414518D01*
X151726276Y-40027000D01*
X153539458Y-40027000D01*
X153521323Y-40057718D01*
G36*
X220246172Y-43443149D02*
X220474000Y-43595379D01*
X220474000Y-44704000D01*
X220531852Y-44994839D01*
X220696599Y-45241401D01*
X222125000Y-46669802D01*
X222125000Y-64455198D01*
X221267984Y-65312214D01*
X221137370Y-65181371D01*
X220977772Y-65115100D01*
X221135303Y-65050010D01*
X221528629Y-64657370D01*
X221741757Y-64144100D01*
X221742242Y-63588339D01*
X221530010Y-63074697D01*
X221217858Y-62762000D01*
X221233310Y-62762000D01*
X221466699Y-62665327D01*
X221645327Y-62486698D01*
X221742000Y-62253309D01*
X221742000Y-61650750D01*
X221583250Y-61492000D01*
X220472000Y-61492000D01*
X220472000Y-61512000D01*
X220218000Y-61512000D01*
X220218000Y-61492000D01*
X219106750Y-61492000D01*
X218948000Y-61650750D01*
X218948000Y-62253309D01*
X219044673Y-62486698D01*
X219223301Y-62665327D01*
X219456690Y-62762000D01*
X219472544Y-62762000D01*
X219161371Y-63072630D01*
X218948243Y-63585900D01*
X218947758Y-64141661D01*
X219159990Y-64655303D01*
X219552630Y-65048629D01*
X219712228Y-65114900D01*
X219554697Y-65179990D01*
X219161371Y-65572630D01*
X218948243Y-66085900D01*
X218947758Y-66641661D01*
X219019083Y-66814281D01*
X216660000Y-64455198D01*
X216660000Y-60476691D01*
X218948000Y-60476691D01*
X218948000Y-61079250D01*
X219106750Y-61238000D01*
X220218000Y-61238000D01*
X220218000Y-60126750D01*
X220472000Y-60126750D01*
X220472000Y-61238000D01*
X221583250Y-61238000D01*
X221742000Y-61079250D01*
X221742000Y-60476691D01*
X221645327Y-60243302D01*
X221466699Y-60064673D01*
X221233310Y-59968000D01*
X220630750Y-59968000D01*
X220472000Y-60126750D01*
X220218000Y-60126750D01*
X220059250Y-59968000D01*
X219456690Y-59968000D01*
X219223301Y-60064673D01*
X219044673Y-60243302D01*
X218948000Y-60476691D01*
X216660000Y-60476691D01*
X216660000Y-58982463D01*
X216692192Y-58950327D01*
X216834838Y-58606799D01*
X216835162Y-58234833D01*
X216693117Y-57891057D01*
X216672097Y-57870000D01*
X219147469Y-57870000D01*
X219159990Y-57900303D01*
X219552630Y-58293629D01*
X220065900Y-58506757D01*
X220621661Y-58507242D01*
X221135303Y-58295010D01*
X221528629Y-57902370D01*
X221741757Y-57389100D01*
X221742242Y-56833339D01*
X221530010Y-56319697D01*
X221137370Y-55926371D01*
X220977772Y-55860100D01*
X221135303Y-55795010D01*
X221528629Y-55402370D01*
X221741757Y-54889100D01*
X221742242Y-54333339D01*
X221530010Y-53819697D01*
X221217858Y-53507000D01*
X221233310Y-53507000D01*
X221466699Y-53410327D01*
X221645327Y-53231698D01*
X221742000Y-52998309D01*
X221742000Y-52395750D01*
X221583250Y-52237000D01*
X220472000Y-52237000D01*
X220472000Y-52257000D01*
X220218000Y-52257000D01*
X220218000Y-52237000D01*
X219106750Y-52237000D01*
X218948000Y-52395750D01*
X218948000Y-52998309D01*
X219044673Y-53231698D01*
X219223301Y-53410327D01*
X219456690Y-53507000D01*
X219472544Y-53507000D01*
X219161371Y-53817630D01*
X219147930Y-53850000D01*
X217484802Y-53850000D01*
X216004894Y-52370092D01*
X216085167Y-52370162D01*
X216428943Y-52228117D01*
X216692192Y-51965327D01*
X216834838Y-51621799D01*
X216834879Y-51574923D01*
X217188111Y-51221691D01*
X218948000Y-51221691D01*
X218948000Y-51824250D01*
X219106750Y-51983000D01*
X220218000Y-51983000D01*
X220218000Y-50871750D01*
X220472000Y-50871750D01*
X220472000Y-51983000D01*
X221583250Y-51983000D01*
X221742000Y-51824250D01*
X221742000Y-51221691D01*
X221645327Y-50988302D01*
X221466699Y-50809673D01*
X221233310Y-50713000D01*
X220630750Y-50713000D01*
X220472000Y-50871750D01*
X220218000Y-50871750D01*
X220059250Y-50713000D01*
X219456690Y-50713000D01*
X219223301Y-50809673D01*
X219044673Y-50988302D01*
X218948000Y-51221691D01*
X217188111Y-51221691D01*
X219231401Y-49178401D01*
X219396148Y-48931839D01*
X219454000Y-48641000D01*
X219454000Y-43595379D01*
X219681828Y-43443149D01*
X219964000Y-43020850D01*
X220246172Y-43443149D01*
X220246172Y-43443149D01*
G37*
X220246172Y-43443149D02*
X220474000Y-43595379D01*
X220474000Y-44704000D01*
X220531852Y-44994839D01*
X220696599Y-45241401D01*
X222125000Y-46669802D01*
X222125000Y-64455198D01*
X221267984Y-65312214D01*
X221137370Y-65181371D01*
X220977772Y-65115100D01*
X221135303Y-65050010D01*
X221528629Y-64657370D01*
X221741757Y-64144100D01*
X221742242Y-63588339D01*
X221530010Y-63074697D01*
X221217858Y-62762000D01*
X221233310Y-62762000D01*
X221466699Y-62665327D01*
X221645327Y-62486698D01*
X221742000Y-62253309D01*
X221742000Y-61650750D01*
X221583250Y-61492000D01*
X220472000Y-61492000D01*
X220472000Y-61512000D01*
X220218000Y-61512000D01*
X220218000Y-61492000D01*
X219106750Y-61492000D01*
X218948000Y-61650750D01*
X218948000Y-62253309D01*
X219044673Y-62486698D01*
X219223301Y-62665327D01*
X219456690Y-62762000D01*
X219472544Y-62762000D01*
X219161371Y-63072630D01*
X218948243Y-63585900D01*
X218947758Y-64141661D01*
X219159990Y-64655303D01*
X219552630Y-65048629D01*
X219712228Y-65114900D01*
X219554697Y-65179990D01*
X219161371Y-65572630D01*
X218948243Y-66085900D01*
X218947758Y-66641661D01*
X219019083Y-66814281D01*
X216660000Y-64455198D01*
X216660000Y-60476691D01*
X218948000Y-60476691D01*
X218948000Y-61079250D01*
X219106750Y-61238000D01*
X220218000Y-61238000D01*
X220218000Y-60126750D01*
X220472000Y-60126750D01*
X220472000Y-61238000D01*
X221583250Y-61238000D01*
X221742000Y-61079250D01*
X221742000Y-60476691D01*
X221645327Y-60243302D01*
X221466699Y-60064673D01*
X221233310Y-59968000D01*
X220630750Y-59968000D01*
X220472000Y-60126750D01*
X220218000Y-60126750D01*
X220059250Y-59968000D01*
X219456690Y-59968000D01*
X219223301Y-60064673D01*
X219044673Y-60243302D01*
X218948000Y-60476691D01*
X216660000Y-60476691D01*
X216660000Y-58982463D01*
X216692192Y-58950327D01*
X216834838Y-58606799D01*
X216835162Y-58234833D01*
X216693117Y-57891057D01*
X216672097Y-57870000D01*
X219147469Y-57870000D01*
X219159990Y-57900303D01*
X219552630Y-58293629D01*
X220065900Y-58506757D01*
X220621661Y-58507242D01*
X221135303Y-58295010D01*
X221528629Y-57902370D01*
X221741757Y-57389100D01*
X221742242Y-56833339D01*
X221530010Y-56319697D01*
X221137370Y-55926371D01*
X220977772Y-55860100D01*
X221135303Y-55795010D01*
X221528629Y-55402370D01*
X221741757Y-54889100D01*
X221742242Y-54333339D01*
X221530010Y-53819697D01*
X221217858Y-53507000D01*
X221233310Y-53507000D01*
X221466699Y-53410327D01*
X221645327Y-53231698D01*
X221742000Y-52998309D01*
X221742000Y-52395750D01*
X221583250Y-52237000D01*
X220472000Y-52237000D01*
X220472000Y-52257000D01*
X220218000Y-52257000D01*
X220218000Y-52237000D01*
X219106750Y-52237000D01*
X218948000Y-52395750D01*
X218948000Y-52998309D01*
X219044673Y-53231698D01*
X219223301Y-53410327D01*
X219456690Y-53507000D01*
X219472544Y-53507000D01*
X219161371Y-53817630D01*
X219147930Y-53850000D01*
X217484802Y-53850000D01*
X216004894Y-52370092D01*
X216085167Y-52370162D01*
X216428943Y-52228117D01*
X216692192Y-51965327D01*
X216834838Y-51621799D01*
X216834879Y-51574923D01*
X217188111Y-51221691D01*
X218948000Y-51221691D01*
X218948000Y-51824250D01*
X219106750Y-51983000D01*
X220218000Y-51983000D01*
X220218000Y-50871750D01*
X220472000Y-50871750D01*
X220472000Y-51983000D01*
X221583250Y-51983000D01*
X221742000Y-51824250D01*
X221742000Y-51221691D01*
X221645327Y-50988302D01*
X221466699Y-50809673D01*
X221233310Y-50713000D01*
X220630750Y-50713000D01*
X220472000Y-50871750D01*
X220218000Y-50871750D01*
X220059250Y-50713000D01*
X219456690Y-50713000D01*
X219223301Y-50809673D01*
X219044673Y-50988302D01*
X218948000Y-51221691D01*
X217188111Y-51221691D01*
X219231401Y-49178401D01*
X219396148Y-48931839D01*
X219454000Y-48641000D01*
X219454000Y-43595379D01*
X219681828Y-43443149D01*
X219964000Y-43020850D01*
X220246172Y-43443149D01*
M02*
