M48
INCH,TZ
T1C0.016
T2C0.030
T3C0.031
T4C0.032
T5C0.035
T6C0.125
%
G90
G05
T1
X67750Y-28500
X68750Y-29250
X73500Y-26000
X73500Y-32500
X74000Y-21250
X85000Y-20250
X85000Y-23000
T2
X65750Y-20766
X65750Y-21750
X65750Y-22734
X65750Y-25016
X65750Y-26000
X65750Y-26984
X65750Y-29138
X65750Y-30122
X65750Y-31106
X65750Y-32091
X86750Y-20516
X86750Y-21500
X86750Y-22484
X86750Y-24159
X86750Y-25144
X86750Y-26128
X86750Y-27112
X86750Y-29266
X86750Y-30250
X86750Y-31234
T3
X71250Y-24500
X71250Y-27500
X71250Y-29250
X71250Y-32250
X81500Y-19750
X81500Y-22750
T4
X62500Y-16500
X63500Y-16500
X64500Y-16500
X65500Y-16500
X66100Y-35500
X66500Y-16500
X67100Y-35500
X67500Y-16500
X68100Y-35500
X68500Y-16500
X69100Y-35500
X69500Y-16500
X70100Y-35500
X70500Y-16500
X71100Y-35500
X71500Y-16500
X72100Y-35500
X73100Y-16500
X73100Y-35500
X74100Y-16500
X75100Y-16500
X75100Y-35500
X76100Y-16500
X76100Y-35500
X77100Y-16500
X77100Y-35500
X78100Y-16500
X78100Y-35500
X79100Y-16500
X79100Y-35500
X80100Y-16500
X80100Y-35500
X81100Y-35500
X82100Y-16500
X82100Y-35500
X83100Y-16500
X84100Y-16500
X84100Y-35500
X85100Y-16500
X85100Y-35500
X86100Y-16500
X86100Y-35500
X87100Y-16500
X87100Y-35500
X88100Y-16500
X88100Y-35500
X89100Y-16500
X89100Y-35500
X90100Y-35500
X91100Y-35500
X92100Y-16500
X92100Y-17500
X92100Y-18500
X92100Y-19500
X92100Y-20500
X92100Y-21500
X92100Y-22500
X92100Y-23500
X92100Y-24500
X92100Y-25500
X92100Y-26500
X92100Y-27500
X92100Y-28500
X92100Y-29500
X92100Y-30500
X92100Y-31500
X92100Y-32500
X92100Y-33500
X93100Y-16500
X93100Y-17500
X93100Y-18500
X93100Y-19500
X93100Y-20500
X93100Y-21500
X93100Y-22500
X93100Y-23500
X93100Y-24500
X93100Y-25500
X93100Y-26500
X93100Y-27500
X93100Y-28500
X93100Y-29500
X93100Y-30500
X93100Y-31500
X93100Y-32500
X93100Y-33500
T5
X84000Y-27250
X84000Y-28250
T6
X60600Y-35500
X61100Y-16500
X90600Y-16500
X93100Y-35500
T0
M30
